<?xml version="1.0" encoding="utf-8"?>
<!-- Generator: Adobe Illustrator 27.5.0, SVG Export Plug-In . SVG Version: 6.00 Build 0)  -->
<svg version="1.1" xmlns="http://www.w3.org/2000/svg" xmlns:xlink="http://www.w3.org/1999/xlink" x="0px" y="0px"
	 viewBox="0 0 500 500" style="enable-background:new 0 0 500 500;" xml:space="preserve">
<g id="Background_Simple">
	<g>
		<path style="opacity:0.7;fill:#FFFFFF;" d="M67.931,167.086c0,0-27.877,71.988,11.297,144.503
			c39.174,72.516,119.879,110.802,184.469,143.548c64.59,32.746,131.661,16.799,163.534-36.838
			c31.873-53.637-11.845-91.928-11.897-168.418c-0.051-76.49,11.447-96.742-29.963-161.364
			c-41.41-64.623-143.059-78.925-219.9-30.996C88.631,105.45,67.931,167.086,67.931,167.086z"/>
	</g>
	<g>
		<path style="fill:#92E3A9;" d="M95.859,87.739c0.186-0.169,0.373-0.338,0.56-0.507c51.569-46.435,120.064-48.528,169.964,1.457
			c26.008,26.052,72.187,21.067,105.227,30.49c113.919,32.49,94.223,187.055,37.951,261.771
			c-50.78,67.424-160.807,82.656-234.731,49.482c-64.959-29.151-110.698-94.275-126.976-162.369
			c-1.632-6.829-2.975-13.727-4.001-20.673C35.29,189.424,51.736,127.862,95.859,87.739z"/>
		<path style="opacity:0.7;fill:#FFFFFF;" d="M95.859,87.739c0.186-0.169,0.373-0.338,0.56-0.507
			c51.569-46.435,120.064-48.528,169.964,1.457c26.008,26.052,72.187,21.067,105.227,30.49
			c113.919,32.49,94.223,187.055,37.951,261.771c-50.78,67.424-160.807,82.656-234.731,49.482
			c-64.959-29.151-110.698-94.275-126.976-162.369c-1.632-6.829-2.975-13.727-4.001-20.673
			C35.29,189.424,51.736,127.862,95.859,87.739z"/>
	</g>
</g>
<g id="Book_shelf">
	<g>
		<g>
			<polyline style="fill:none;stroke:#263238;stroke-linecap:round;stroke-linejoin:round;stroke-miterlimit:10;" points="
				445.849,182.406 339.109,182.406 339.109,170.289 430.849,170.289 			"/>
			
				<line style="fill:none;stroke:#263238;stroke-linecap:round;stroke-linejoin:round;stroke-miterlimit:10;" x1="384.979" y1="188.604" x2="384.979" y2="182.406"/>
			<polyline style="fill:none;stroke:#263238;stroke-linecap:round;stroke-linejoin:round;stroke-miterlimit:10;" points="
				376.386,183.041 379.826,205.791 384.979,205.791 			"/>
			<polyline style="fill:none;stroke:#263238;stroke-linecap:round;stroke-linejoin:round;stroke-miterlimit:10;" points="
				361.643,125.281 361.643,170.289 352.061,170.289 352.061,111.94 361.643,111.94 361.643,114.47 			"/>
			
				<line style="fill:none;stroke:#263238;stroke-linecap:round;stroke-linejoin:round;stroke-miterlimit:10;" x1="361.643" y1="118.77" x2="361.643" y2="120.612"/>
			<path style="fill:none;stroke:#263238;stroke-linecap:round;stroke-linejoin:round;stroke-miterlimit:10;" d="M361.643,170.289"
				/>
			<polyline style="fill:none;stroke:#263238;stroke-linecap:round;stroke-linejoin:round;stroke-miterlimit:10;" points="
				384.979,127.485 384.979,111.94 361.643,111.94 			"/>
			<polyline style="fill:none;stroke:#263238;stroke-linecap:round;stroke-linejoin:round;stroke-miterlimit:10;" points="
				380.563,170.289 370.98,170.289 370.98,127.485 380.563,127.485 			"/>
			<polyline style="fill:none;stroke:#263238;stroke-linecap:round;stroke-linejoin:round;stroke-miterlimit:10;" points="
				403.898,159.289 403.898,127.485 380.563,127.485 			"/>
			
				<line style="fill:none;stroke:#263238;stroke-linecap:round;stroke-linejoin:round;stroke-miterlimit:10;" x1="380.563" y1="144.446" x2="380.563" y2="170.289"/>
			
				<line style="fill:none;stroke:#263238;stroke-linecap:round;stroke-linejoin:round;stroke-miterlimit:10;" x1="380.563" y1="137.045" x2="380.563" y2="142.04"/>
			
				<line style="fill:none;stroke:#263238;stroke-linecap:round;stroke-linejoin:round;stroke-miterlimit:10;" x1="380.563" y1="129.994" x2="380.563" y2="132.406"/>
			
				<line style="fill:none;stroke:#263238;stroke-linecap:round;stroke-linejoin:round;stroke-miterlimit:10;" x1="352.061" y1="126.657" x2="361.643" y2="126.657"/>
			
				<line style="fill:none;stroke:#263238;stroke-linecap:round;stroke-linejoin:round;stroke-miterlimit:10;" x1="353.924" y1="137.045" x2="361.643" y2="137.045"/>
			
				<line style="fill:none;stroke:#263238;stroke-linecap:round;stroke-linejoin:round;stroke-miterlimit:10;" x1="370.98" y1="159.621" x2="377.768" y2="159.621"/>
			
				<line style="fill:none;stroke:#263238;stroke-linecap:round;stroke-linejoin:round;stroke-miterlimit:10;" x1="370.98" y1="163.611" x2="380.563" y2="163.611"/>
			<polyline style="fill:none;stroke:#263238;stroke-linecap:round;stroke-linejoin:round;stroke-miterlimit:10;" points="
				384.979,138.919 400.499,138.919 400.499,145.161 			"/>
			<polyline style="fill:none;stroke:#263238;stroke-linecap:round;stroke-linejoin:round;stroke-miterlimit:10;" points="
				397.394,145.161 384.979,145.161 384.979,142.726 			"/>
			<path style="fill:none;stroke:#263238;stroke-linecap:round;stroke-linejoin:round;stroke-miterlimit:10;" d="M383.932,198.112
				c0.349,2.56,0.698,5.12,1.047,7.679"/>
			<path style="fill:none;stroke:#263238;stroke-linecap:round;stroke-linejoin:round;stroke-miterlimit:10;" d="M382.973,191.072
				c0.203,1.493,0.407,2.986,0.611,4.48"/>
			<path style="fill:none;stroke:#263238;stroke-linecap:round;stroke-linejoin:round;stroke-miterlimit:10;" d="M381.791,182.406
				c0.142,1.042,0.284,2.084,0.426,3.126"/>
			<path style="fill:none;stroke:#263238;stroke-linecap:round;stroke-linejoin:round;stroke-miterlimit:10;" d="M431.494,170.289
				h-37.128c-2.946,0-5.334-2.388-5.334-5.334l0,0c0-2.946,2.388-5.334,5.334-5.334h37.128"/>
			<path style="fill:none;stroke:#263238;stroke-linecap:round;stroke-linejoin:round;stroke-miterlimit:10;" d="M445.494,170.289
				h-27.128c-2.946,0-5.334-2.388-5.334-5.334l0,0c0-2.946,2.388-5.334,5.334-5.334h19.128"/>
			
				<line style="fill:none;stroke:#263238;stroke-linecap:round;stroke-linejoin:round;stroke-miterlimit:10;" x1="418.286" y1="162.527" x2="435.425" y2="162.527"/>
			
				<line style="fill:none;stroke:#263238;stroke-linecap:round;stroke-linejoin:round;stroke-miterlimit:10;" x1="440.176" y1="164.955" x2="425.028" y2="164.955"/>
			
				<line style="fill:none;stroke:#263238;stroke-linecap:round;stroke-linejoin:round;stroke-miterlimit:10;" x1="420.922" y1="167.778" x2="435.425" y2="167.778"/>
		</g>
	</g>
</g>
<g id="Device">
	<g>
		<path style="opacity:0.3;fill-opacity:0.7;" d="M321.97,400.49l-135.78,34.55c-3.87-1.41-7.66-2.95-11.36-4.61
			c-17.11-7.68-32.88-17.85-47.14-29.92c-0.01,0-0.01,0-0.02-0.02H321.97z"/>
		<g>
			<defs>
				<path id="XMLID_186_" d="M201.37,359.4v3.11c0,0.85-0.69,1.54-1.54,1.54h-60.46c-3.05,0-5.27-2.89-4.48-5.84l7.06-26.51
					l9.83-36.92h30.74l1.06,16.56l1.39,21.5l1.15,17.93c0.25,3.99,3.56,7.09,7.55,7.09h6.16
					C200.68,357.86,201.37,358.55,201.37,359.4z"/>
			</defs>
			<use xlink:href="#XMLID_186_"  style="overflow:visible;fill:#92E3A9;"/>
			<clipPath id="XMLID_00000049917078456195336830000011877648342717732502_">
				<use xlink:href="#XMLID_186_"  style="overflow:visible;"/>
			</clipPath>
			<path style="opacity:0.3;clip-path:url(#XMLID_00000049917078456195336830000011877648342717732502_);fill-opacity:0.7;" d="
				M193.67,357.86h-52.96l6.19-25.56l4.88-20.16l31.8-0.8l1.39,21.5l1.15,17.93C186.37,354.76,189.68,357.86,193.67,357.86z"/>
			<path style="opacity:0.3;clip-path:url(#XMLID_00000049917078456195336830000011877648342717732502_);fill-opacity:0.7;" d="
				M184.97,332.84c-14.09,1.36-27.73,0.61-38.07-0.54c-1.75-0.18-3.4-0.39-4.95-0.6l9.83-36.92h30.74l1.06,16.56L184.97,332.84z"/>
			
				<use xlink:href="#XMLID_186_"  style="overflow:visible;fill:none;stroke:#263238;stroke-linecap:round;stroke-linejoin:round;stroke-miterlimit:10;"/>
		</g>
		<g>
			<g>
				<path style="fill:#92E3A9;stroke:#263238;stroke-linecap:round;stroke-linejoin:round;stroke-miterlimit:10;" d="
					M305.251,307.666c0,3.755-2.927,6.856-6.675,7.069c-22.126,1.253-93.158,5.157-119.745,5.157s-97.619-3.903-119.745-5.157
					c-3.749-0.212-6.675-3.314-6.675-7.069V134.82c0-3.91,3.17-7.08,7.08-7.08H298.17c3.91,0,7.08,3.17,7.08,7.08V307.666z"/>
				<path style="fill:#92E3A9;stroke:#263238;stroke-linecap:round;stroke-linejoin:round;stroke-miterlimit:10;" d="
					M308.944,307.666c0,3.755-2.927,6.856-6.675,7.069c-22.126,1.253-93.158,5.157-119.745,5.157s-97.619-3.903-119.745-5.157
					c-3.749-0.212-6.675-3.314-6.675-7.069V134.82c0-3.91,3.17-7.08,7.08-7.08h238.679c3.91,0,7.08,3.17,7.08,7.08V307.666z"/>
			</g>
			<g>
				
					<rect x="62.775" y="134.063" style="fill:#263238;stroke:#263238;stroke-linecap:round;stroke-linejoin:round;stroke-miterlimit:10;" width="239.497" height="171.428"/>
				<rect x="62.775" y="134.063" style="opacity:0.2;fill:#FFFFFF;" width="239.497" height="171.428"/>
				
					<rect x="62.775" y="134.063" style="fill:#FFFFFF;stroke:#263238;stroke-linecap:round;stroke-linejoin:round;stroke-miterlimit:10;" width="239.497" height="18.892"/>
				<rect x="62.775" y="152.955" style="fill:#BFBFBF;stroke:#263238;stroke-miterlimit:10;" width="26.247" height="152.536"/>
				
					<line style="fill:none;stroke:#FFFFFF;stroke-linecap:round;stroke-linejoin:round;stroke-miterlimit:10;" x1="186.573" y1="152.955" x2="186.573" y2="305.491"/>
				
					<line style="fill:none;stroke:#FFFFFF;stroke-linecap:round;stroke-linejoin:round;stroke-miterlimit:10;" x1="89.022" y1="219.838" x2="302.272" y2="219.838"/>
				<path style="fill:#BFBFBF;stroke:#263238;stroke-miterlimit:10;" d="M299.335,140.012c0,1.447-1.173,2.621-2.621,2.621
					s-2.621-1.173-2.621-2.621c0-1.447,1.173-2.621,2.621-2.621S299.335,138.565,299.335,140.012z"/>
				<path style="fill:#BFBFBF;stroke:#263238;stroke-miterlimit:10;" d="M289.231,140.012c0,1.447-1.173,2.621-2.621,2.621
					c-1.448,0-2.621-1.173-2.621-2.621c0-1.447,1.173-2.621,2.621-2.621C288.058,137.391,289.231,138.565,289.231,140.012z"/>
				<path style="fill:#BFBFBF;stroke:#263238;stroke-miterlimit:10;" d="M279.127,140.012c0,1.447-1.173,2.621-2.621,2.621
					s-2.621-1.173-2.621-2.621c0-1.447,1.173-2.621,2.621-2.621S279.127,138.565,279.127,140.012z"/>
				
					<rect x="67.063" y="159.571" style="fill:#FFFFFF;stroke:#263238;stroke-linecap:round;stroke-linejoin:round;stroke-miterlimit:10;" width="17.67" height="7.128"/>
				
					<rect x="67.063" y="168.838" style="fill:#FFFFFF;stroke:#263238;stroke-linecap:round;stroke-linejoin:round;stroke-miterlimit:10;" width="17.67" height="7.128"/>
				
					<rect x="67.063" y="178.105" style="fill:#FFFFFF;stroke:#263238;stroke-linecap:round;stroke-linejoin:round;stroke-miterlimit:10;" width="17.67" height="7.128"/>
				
					<rect x="67.063" y="187.372" style="fill:#FFFFFF;stroke:#263238;stroke-linecap:round;stroke-linejoin:round;stroke-miterlimit:10;" width="17.67" height="7.128"/>
				
					<rect x="67.063" y="204.663" style="fill:#FFFFFF;stroke:#263238;stroke-linecap:round;stroke-linejoin:round;stroke-miterlimit:10;" width="17.67" height="7.128"/>
				
					<rect x="67.063" y="213.63" style="fill:#FFFFFF;stroke:#263238;stroke-linecap:round;stroke-linejoin:round;stroke-miterlimit:10;" width="17.67" height="7.128"/>
				
					<rect x="67.063" y="222.597" style="fill:#FFFFFF;stroke:#263238;stroke-linecap:round;stroke-linejoin:round;stroke-miterlimit:10;" width="17.67" height="7.128"/>
				
					<rect x="67.063" y="231.564" style="fill:#FFFFFF;stroke:#263238;stroke-linecap:round;stroke-linejoin:round;stroke-miterlimit:10;" width="17.67" height="7.128"/>
				
					<rect x="67.063" y="240.531" style="fill:#FFFFFF;stroke:#263238;stroke-linecap:round;stroke-linejoin:round;stroke-miterlimit:10;" width="17.67" height="7.128"/>
				
					<rect x="67.063" y="257.855" style="fill:#FFFFFF;stroke:#263238;stroke-linecap:round;stroke-linejoin:round;stroke-miterlimit:10;" width="7.128" height="7.128"/>
				
					<rect x="77.605" y="257.855" style="fill:#FFFFFF;stroke:#263238;stroke-linecap:round;stroke-linejoin:round;stroke-miterlimit:10;" width="7.128" height="7.128"/>
				
					<rect x="67.063" y="268.487" style="fill:#FFFFFF;stroke:#263238;stroke-linecap:round;stroke-linejoin:round;stroke-miterlimit:10;" width="7.128" height="7.128"/>
				
					<rect x="77.605" y="268.487" style="fill:#FFFFFF;stroke:#263238;stroke-linecap:round;stroke-linejoin:round;stroke-miterlimit:10;" width="7.128" height="7.128"/>
				
					<line style="fill:none;stroke:#263238;stroke-linecap:round;stroke-linejoin:round;stroke-miterlimit:10;" x1="62.775" y1="199.923" x2="89.022" y2="199.923"/>
				
					<line style="fill:none;stroke:#263238;stroke-linecap:round;stroke-linejoin:round;stroke-miterlimit:10;" x1="62.775" y1="253.198" x2="89.022" y2="253.198"/>
				<rect x="235.396" y="138.001" style="fill:#BFBFBF;stroke:#263238;stroke-miterlimit:10;" width="28.22" height="4.022"/>
				<rect x="67.063" y="137.209" style="fill:#BFBFBF;stroke:#263238;stroke-miterlimit:10;" width="5.607" height="5.607"/>
				<g>
					<circle style="fill:#92E3A9;" cx="136.513" cy="185.838" r="23.604"/>
					<circle style="opacity:0.5;fill:#FFFFFF;" cx="130.227" cy="180.124" r="13.89"/>
				</g>
				
					<rect x="62.775" y="299.483" style="fill:#FFFFFF;stroke:#263238;stroke-linecap:round;stroke-linejoin:round;stroke-miterlimit:10;" width="239.497" height="6.007"/>
				<rect x="291.571" y="152.955" style="fill:#BFBFBF;stroke:#263238;stroke-miterlimit:10;" width="10.701" height="146.529"/>
				
					<line style="fill:none;stroke:#263238;stroke-linecap:round;stroke-linejoin:round;stroke-miterlimit:10;" x1="291.571" y1="168.838" x2="302.272" y2="168.838"/>
				
					<line style="fill:none;stroke:#263238;stroke-linecap:round;stroke-linejoin:round;stroke-miterlimit:10;" x1="291.571" y1="201.769" x2="302.272" y2="201.769"/>
				
					<line style="fill:none;stroke:#263238;stroke-linecap:round;stroke-linejoin:round;stroke-miterlimit:10;" x1="291.571" y1="234.7" x2="302.272" y2="234.7"/>
				<g>
					<circle style="fill:none;stroke:#FFFFFF;stroke-miterlimit:10;" cx="237.885" cy="185.838" r="23.604"/>
					<line style="fill:none;stroke:#FFFFFF;stroke-miterlimit:10;" x1="214.281" y1="185.838" x2="261.49" y2="185.838"/>
					<line style="fill:none;stroke:#FFFFFF;stroke-miterlimit:10;" x1="237.885" y1="162.233" x2="237.885" y2="209.442"/>
					<line style="fill:none;stroke:#FFFFFF;stroke-miterlimit:10;" x1="221.194" y1="169.147" x2="254.576" y2="202.529"/>
					<line style="fill:none;stroke:#FFFFFF;stroke-miterlimit:10;" x1="254.576" y1="169.147" x2="221.194" y2="202.529"/>
					<line style="fill:none;stroke:#FFFFFF;stroke-miterlimit:10;" x1="216.089" y1="176.778" x2="259.682" y2="194.897"/>
					<line style="fill:none;stroke:#FFFFFF;stroke-miterlimit:10;" x1="246.945" y1="164.041" x2="228.826" y2="207.634"/>
					<line style="fill:none;stroke:#FFFFFF;stroke-miterlimit:10;" x1="228.879" y1="164.019" x2="246.892" y2="207.656"/>
					<line style="fill:none;stroke:#FFFFFF;stroke-miterlimit:10;" x1="259.704" y1="176.831" x2="216.067" y2="194.844"/>
					
						<ellipse transform="matrix(0.2313 -0.9729 0.9729 0.2313 2.0598 374.2825)" style="fill:none;stroke:#FFFFFF;stroke-miterlimit:10;" cx="237.885" cy="185.838" rx="15.853" ry="15.853"/>
					
						<ellipse transform="matrix(0.2305 -0.9731 0.9731 0.2305 2.2253 374.4894)" style="fill:none;stroke:#FFFFFF;stroke-miterlimit:10;" cx="237.885" cy="185.838" rx="7.239" ry="7.239"/>
				</g>
				<g>
					
						<circle style="fill:none;stroke:#FFFFFF;stroke-linecap:round;stroke-linejoin:round;stroke-miterlimit:10;" cx="136.513" cy="260.485" r="23.604"/>
					
						<line style="fill:none;stroke:#FFFFFF;stroke-linecap:round;stroke-linejoin:round;stroke-miterlimit:10;" x1="112.908" y1="260.485" x2="160.117" y2="260.485"/>
					
						<line style="fill:none;stroke:#FFFFFF;stroke-linecap:round;stroke-linejoin:round;stroke-miterlimit:10;" x1="136.512" y1="236.881" x2="136.512" y2="284.09"/>
					
						<ellipse style="fill:none;stroke:#FFFFFF;stroke-linecap:round;stroke-linejoin:round;stroke-miterlimit:10;" cx="136.513" cy="260.485" rx="8.01" ry="23.604"/>
					
						<ellipse style="fill:none;stroke:#FFFFFF;stroke-linecap:round;stroke-linejoin:round;stroke-miterlimit:10;" cx="136.513" cy="260.485" rx="15.27" ry="23.604"/>
					
						<ellipse style="fill:none;stroke:#FFFFFF;stroke-linecap:round;stroke-linejoin:round;stroke-miterlimit:10;" cx="136.513" cy="260.485" rx="21.262" ry="23.604"/>
					
						<line style="fill:none;stroke:#FFFFFF;stroke-linecap:round;stroke-linejoin:round;stroke-miterlimit:10;" x1="115.535" y1="249.659" x2="157.487" y2="249.659"/>
					
						<line style="fill:none;stroke:#FFFFFF;stroke-linecap:round;stroke-linejoin:round;stroke-miterlimit:10;" x1="123.907" y1="240.531" x2="149.116" y2="240.531"/>
					
						<line style="fill:none;stroke:#FFFFFF;stroke-linecap:round;stroke-linejoin:round;stroke-miterlimit:10;" x1="115.535" y1="271.311" x2="157.487" y2="271.311"/>
					
						<line style="fill:none;stroke:#FFFFFF;stroke-linecap:round;stroke-linejoin:round;stroke-miterlimit:10;" x1="123.907" y1="280.44" x2="149.116" y2="280.44"/>
				</g>
				<g>
					<circle style="fill:none;stroke:#FFFFFF;stroke-miterlimit:10;" cx="237.885" cy="260.485" r="23.604"/>
					<ellipse style="fill:none;stroke:#FFFFFF;stroke-miterlimit:10;" cx="237.885" cy="260.485" rx="8.369" ry="23.604"/>
					<ellipse style="fill:none;stroke:#FFFFFF;stroke-miterlimit:10;" cx="237.885" cy="260.485" rx="23.604" ry="8.369"/>
					<line style="fill:none;stroke:#FFFFFF;stroke-miterlimit:10;" x1="230.06" y1="268.854" x2="246.254" y2="252.66"/>
					<line style="fill:none;stroke:#FFFFFF;stroke-miterlimit:10;" x1="214.281" y1="260.485" x2="261.49" y2="260.485"/>
					<line style="fill:none;stroke:#FFFFFF;stroke-miterlimit:10;" x1="237.885" y1="236.881" x2="237.885" y2="284.09"/>
				</g>
			</g>
		</g>
		<path style="fill:#FFFFFF;stroke:#263238;stroke-linecap:round;stroke-linejoin:round;stroke-miterlimit:10;" d="M104.802,364.047
			h236.08c-78.724-0.042-157.525-0.045-236.08-0.012V364.047z"/>
		<path style="fill:#FFFFFF;stroke:#263238;stroke-linecap:round;stroke-linejoin:round;stroke-miterlimit:10;" d="M101.637,364.037
			c-9.081,0.004-18.174,0.006-27.247,0.011h27.247V364.037z"/>
		<path style="fill:#FFFFFF;stroke:#263238;stroke-linecap:round;stroke-linejoin:round;stroke-miterlimit:10;" d="M60.011,364.048
			c2.399,0,4.799,0,7.198,0"/>
		<g>
			<polygon style="fill:#263238;stroke:#263238;stroke-linecap:round;stroke-linejoin:round;stroke-miterlimit:10;" points="
				127.396,379.079 188.451,379.079 188.451,366.604 127.542,367.396 			"/>
			<polygon style="fill:#92E3A9;stroke:#263238;stroke-linecap:round;stroke-linejoin:round;stroke-miterlimit:10;" points="
				305.02,379.079 171.322,379.079 130.824,369.242 127.542,362.096 242.531,362.096 305.02,374.651 			"/>
			<g>
				<defs>
					<polyline id="XMLID_185_" points="192.802,374.651 305.02,374.651 242.531,362.096 127.542,362.096 171.322,374.651 
						187.527,374.651 					"/>
				</defs>
				<use xlink:href="#XMLID_185_"  style="overflow:visible;fill:#92E3A9;"/>
				<clipPath id="XMLID_00000014596421162116832760000009810703381711040954_">
					<use xlink:href="#XMLID_185_"  style="overflow:visible;"/>
				</clipPath>
				
					<polygon style="opacity:0.3;clip-path:url(#XMLID_00000014596421162116832760000009810703381711040954_);fill-opacity:0.7;" points="
					127.542,362.096 171.322,374.651 305.02,374.651 242.531,362.096 				"/>
				
					<use xlink:href="#XMLID_185_"  style="overflow:visible;fill:none;stroke:#263238;stroke-linecap:round;stroke-linejoin:round;stroke-miterlimit:10;"/>
			</g>
			
				<line style="fill:none;stroke:#263238;stroke-linecap:round;stroke-linejoin:round;stroke-miterlimit:10;" x1="171.322" y1="377.418" x2="171.322" y2="379.079"/>
			<path style="fill:#92E3A9;stroke:#263238;stroke-linecap:round;stroke-linejoin:round;stroke-miterlimit:10;" d="
				M132.377,367.282c0.274,1.016,0.425,2.133,0.425,3.305c0,4.69-2.421,8.492-5.407,8.492c-2.986,0-5.407-3.802-5.407-8.492
				s2.421-8.492,5.407-8.492c1.651,0,3.129,1.162,4.12,2.993"/>
		</g>
		<path style="fill:#FFFFFF;stroke:#263238;stroke-linecap:round;stroke-linejoin:round;stroke-miterlimit:10;" d="M104.437,388.533
			C181,389,259,389,336.407,388.533"/>
		<path style="fill:#FFFFFF;stroke:#263238;stroke-linecap:round;stroke-linejoin:round;stroke-miterlimit:10;" d="M85.879,388.533
			C90,389,93,389,97.225,388.533"/>
		<path style="fill:#FFFFFF;stroke:#263238;stroke-linecap:round;stroke-linejoin:round;stroke-miterlimit:10;" d="M197.19,400.494
			C243,400,288,400,333.769,400.494"/>
		<path style="fill:#FFFFFF;stroke:#263238;stroke-linecap:round;stroke-linejoin:round;stroke-miterlimit:10;" d="M109.593,400.494
			C134,400,158,400,181.716,400.494"/>
	</g>
</g>
<g id="Character">
	<g>
		<g>
			<path style="fill:#FFFFFF;stroke:#263238;stroke-linecap:round;stroke-linejoin:round;stroke-miterlimit:10;" d="
				M306.113,270.049c-4.059,0.946-8.227,1.249-12.363,0.801c-0.477-0.056-0.953-0.122-1.429-0.188
				c-5.248-0.795-5.383-6.294-9.296-27.364c-1.119-6.025,2.917-13.844,0.581-22.879c-0.49-1.906,2.633-16.223,6.916-20.854
				c13.924-15.057,45.939-12.223,51.342,7.976C349.78,237.144,329.659,264.525,306.113,270.049z"/>
			<path style="fill:none;stroke:#263238;stroke-linecap:round;stroke-linejoin:round;stroke-miterlimit:10;" d="M298.366,259.264
				c-0.309,3.21-8.595,9.264-6.048,11.395"/>
			<path style="fill:#263238;" d="M306.113,270.049c-4.059,0.946-8.227,1.249-12.363,0.801c5.112-1.87,8.733-5.992,8.733-5.992
				L306.113,270.049z"/>
			<path style="fill:#FFFFFF;stroke:#263238;stroke-linecap:round;stroke-linejoin:round;stroke-miterlimit:10;" d="
				M153.769,359.747c0,0-0.527,2.803,0,4.303c0.527,1.5,2.374,1.27,2.637,0c0.264-1.27,2.11-4.303,2.11-4.303"/>
			<path style="fill:#FFFFFF;stroke:#263238;stroke-linecap:round;stroke-linejoin:round;stroke-miterlimit:10;" d="
				M237.885,363.457c0,0-46.17-10.624-49.729-10.28c-3.559,0.344-19.708-12.854-21.865-12.705c-2.157,0.149-10.26,6.355-10.26,6.355
				l-9.309,11.198l-2.606,6.512c0,0,1.335,3.337,5.338-1.393l6.577-3.395c0,0,11.618,10.676,23.428,8.897
				c0,0,49.355,28.342,58.697,27.365c9.342-0.977,40.913-32.866,40.913-32.866L237.885,363.457z"/>
			<path style="fill:#FFFFFF;stroke:#263238;stroke-linecap:round;stroke-linejoin:round;stroke-miterlimit:10;" d="
				M301.551,266.897c2.859,1.989,6.287,10.281,3.295,19.466l37.547-2.868c0,0-9.655-15.391-11.949-29.244
				c-2.294-13.853-19.636-3.696-19.636-3.696"/>
			<path style="fill:#263238;" d="M350.428,215.1c-3.572-21.379-18.017-28.882-32.503-28.317c0,0-2.344-0.312-5.674-0.754
				c-21.97-2.913-32.608,6.493-34.377,15.359c-1.277,6.401,1.484,15.305,14.027,19.483c0,0-3.063-3.849-2.034-8.798
				c0.596,1.615,1.375,3.293,2.397,5.02c4.19,7.082,4.935,10.538,5.388,13.12l1.131,1.102c0.544-3.015,1.976-7.041,5.675-4.069
				c6.656,5.348,3.618,18.762,0.775,22.892c0,0,6.059,14.421,25.429,11.39C330.664,261.53,354,236.48,350.428,215.1z"/>
			<path style="fill:#FFFFFF;stroke:#263238;stroke-linecap:round;stroke-linejoin:round;stroke-miterlimit:10;" d="M300.88,233.089
				c0,0-1.695-9.21,1.202-8.69c2.896,0.519,4.71,10.176,3.623,15.758c-1.087,5.583-3.61,10.844-5.634,8.998
				c-2.024-1.846,0.982-4.492,0.982-4.492"/>
			<g>
				<defs>
					<path id="XMLID_188_" d="M403.99,387.86c-20.28,23.59-48.23,40.06-78.99,49.59c-6.36,1.97-12.84,3.64-19.4,5.02
						c-1.76,0.37-3.53,0.72-5.3,1.05c-3.66,0.68-7.33,1.26-11.02,1.76c-1.84-22.11-6.67-44.97-10.54-66.3
						c-0.81-4.49-1.58-8.92-2.28-13.25c-0.13-0.86-0.27-1.72-0.4-2.57c-1.25-8.16-2.19-15.98-2.58-23.32
						c-1.1-21.33,2.53-38.61,17.05-48.29c3.14-2.1,6.8-3.84,11.02-5.19c0,0,0.01,0,0.02-0.01c0.18-0.16,1.65-1.36,4.04-2.98
						c6.27-4.22,18.93-11.26,31.56-9.54c0.57,0.08,1.14,0.17,1.71,0.29c2.29,0.46,4.57,1.23,6.8,2.37c0,0,9.44,1.45,19.4,6.23
						c6.78,3.26,13.78,8.07,18.22,15.02C390.18,308.51,398.64,354.85,403.99,387.86z"/>
				</defs>
				<use xlink:href="#XMLID_188_"  style="overflow:visible;fill:#999999;"/>
				<clipPath id="XMLID_00000047047966928892703690000006210162106727999141_">
					<use xlink:href="#XMLID_188_"  style="overflow:visible;"/>
				</clipPath>
				<g style="clip-path:url(#XMLID_00000047047966928892703690000006210162106727999141_);">
					<path style="opacity:0.3;fill-opacity:0.7;" d="M312.34,344.19c0,0-5.87,31.86-16.99,41.49c0,0-4.55,10.01-12.92,13.14
						c-1.24-6.71-2.51-13.35-3.69-19.84c-0.81-4.49-1.58-8.92-2.28-13.25c-0.13-0.86-0.27-1.72-0.4-2.57
						c-0.13-0.88-0.27-1.75-0.39-2.62L312.34,344.19z"/>
					<path style="opacity:0.3;fill-opacity:0.7;" d="M403.99,387.86c-20.28,23.59-48.23,40.06-78.99,49.59
						c-6.36,1.97-12.84,3.64-19.4,5.02c-1.76,0.37-3.53,0.72-5.3,1.05c-1.59,0.3-3.18,0.57-4.78,0.83
						c1.62-18.25,4.84-44.86,10.08-48.31c0,0,4.1-28.97,8.44-43.73c8.55-29.06-4.33-57.55,21.22-69.66
						c-13.06,1.47-22.76-0.48-22.76-0.48c4.49-3.45,14.36-6.43,24.23-8.39h0.01c0.14,0.01,0.29,0.03,0.43,0.05
						c0.57,0.08,1.14,0.17,1.71,0.29c2.29,0.46,4.57,1.23,6.8,2.37c0,0,9.44,1.45,19.4,6.23c6.78,3.26,13.78,8.07,18.22,15.02
						C390.18,308.51,398.64,354.85,403.99,387.86z"/>
				</g>
				
					<use xlink:href="#XMLID_188_"  style="overflow:visible;fill:none;stroke:#263238;stroke-linecap:round;stroke-linejoin:round;stroke-miterlimit:10;"/>
			</g>
			<g>
				<defs>
					<path id="XMLID_187_" d="M290.278,291.26c-24.217,5.748-31.521,35.467-43.208,44.347c-11.687,8.88-18.093,20.029-18.093,20.029
						s-10.395,1.742-10.395,5.523c0,3.781-3.466,24.462,17.366,30.351s26.887-2.644,26.887-2.644s35.507-21.068,42.01-29.802
						c3.252-4.367,14.929-21.054,5.727-43.784"/>
				</defs>
				<use xlink:href="#XMLID_187_"  style="overflow:visible;fill:#999999;"/>
				<clipPath id="XMLID_00000013902299887328761780000009260736680054623895_">
					<use xlink:href="#XMLID_187_"  style="overflow:visible;"/>
				</clipPath>
				<path style="opacity:0.3;clip-path:url(#XMLID_00000013902299887328761780000009260736680054623895_);fill-opacity:0.7;" d="
					M256.31,383.77c-32.33,4.93-34.15-16.06-33.13-26.57c2.79-1.06,5.8-1.56,5.8-1.56s0.32-0.56,0.95-1.52
					C226.49,371.07,256.31,383.77,256.31,383.77z"/>
				
					<use xlink:href="#XMLID_187_"  style="overflow:visible;fill:none;stroke:#263238;stroke-linecap:round;stroke-linejoin:round;stroke-miterlimit:10;"/>
			</g>
			<path style="fill:none;stroke:#263238;stroke-linecap:round;stroke-linejoin:round;stroke-miterlimit:10;" d="M155.352,356.582
				c0,0-0.527-3.692,0-5.143c0.527-1.451,3.033-1.055,3.297-2.637c0.264-1.582,1.582-4.615,3.297-4.615
				c1.714,0,3.165-1.766,3.165-1.766"/>
			<path style="fill:none;stroke:#263238;stroke-linecap:round;stroke-linejoin:round;stroke-miterlimit:10;" d="M146.723,358.026
				c0,0,5.643-4.028,7.046-4.872"/>
			<path style="fill:none;stroke:#263238;stroke-linecap:round;stroke-linejoin:round;stroke-miterlimit:10;" d="M307,336.275
				c0,0-43.346,10.383-56.481-3.984"/>
			<path style="fill:none;stroke:#263238;stroke-linecap:round;stroke-linejoin:round;stroke-miterlimit:10;" d="M228.977,355.636
				c0,0-3.867,13.023,6.023,20.963c9.89,7.94,22.549,7.149,22.549,7.149"/>
			<path style="fill:none;stroke:#263238;stroke-linecap:round;stroke-linejoin:round;stroke-miterlimit:10;" d="M301.551,286.362
				c0,0,27.909-12.253,44.129-9.871"/>
			<path style="fill:none;stroke:#263238;stroke-linecap:round;stroke-linejoin:round;stroke-miterlimit:10;" d="M318.473,344.187
				c0,0-7.718,19.296-24.232,24.186"/>
			<path style="fill:none;stroke:#263238;stroke-linecap:round;stroke-linejoin:round;stroke-miterlimit:10;" d="M286.76,373.659
				c0,0,11.932,25.122,39.426,29.473"/>
			<path style="fill:none;stroke:#263238;stroke-linecap:round;stroke-linejoin:round;stroke-miterlimit:10;" d="M305.6,442.47
				c-0.43-4.93-1.02-11-1.7-16.82v-0.01c-1.06-9.03-2.33-17.46-3.63-20.13c-3.16-6.53-2.51-17.11-2.51-17.11
				c-4.49-6.04-3.52-17.81-3.52-17.81"/>
			<g style="opacity:0.4;">
				<path style="fill:none;stroke:#FFFFFF;stroke-linecap:round;stroke-linejoin:round;stroke-miterlimit:10;" d="M321.085,221.039
					c2.021,0.664,4.112,1.26,6.233,1.494"/>
				<path style="fill:none;stroke:#FFFFFF;stroke-linecap:round;stroke-linejoin:round;stroke-miterlimit:10;" d="M299.625,188.413
					c-6.051,2.595-8.807,10.367-5.303,15.727c5.303,7.542,13.975,11.389,22.36,15.255"/>
				<path style="fill:none;stroke:#FFFFFF;stroke-linecap:round;stroke-linejoin:round;stroke-miterlimit:10;" d="M290.427,190.783
					c-8.835,4.164-11.524,12.683-4.86,20.348"/>
				<path style="fill:none;stroke:#FFFFFF;stroke-linecap:round;stroke-linejoin:round;stroke-miterlimit:10;" d="M341.02,220.817
					c0.949,1.254,1.833,2.6,2.43,4.061"/>
				<path style="fill:none;stroke:#FFFFFF;stroke-linecap:round;stroke-linejoin:round;stroke-miterlimit:10;" d="M319.618,192.185
					c-3.847,12.91,12.486,18.745,19.346,26.177"/>
			</g>
		</g>
		<g>
			<g>
				<defs>
					<path id="XMLID_183_" d="M452.58,272.01c-0.18,1.29-0.36,2.57-0.56,3.86c-5.94,39.14-21.71,77.53-42.46,105.08
						c-1.78,2.37-3.64,4.67-5.57,6.91c-20.28,23.59-48.23,40.06-78.99,49.59c-6.36,1.97-12.84,3.64-19.4,5.02
						c-1.76,0.37-3.53,0.72-5.3,1.05c1.05-5.18,2.26-11.22,3.6-17.87v-0.01c1.73-8.62,3.66-18.25,5.67-28.29
						c8.82-44.11,19.16-96.22,20.77-106.09c0.41-2.53,0.95-4.86,1.67-6.98c1.03-3.02,2.44-5.63,4.43-7.86
						c0.42-0.46,0.86-0.91,1.33-1.35c0.35-0.32,0.73-0.64,1.11-0.95c7.01-5.58,19.4-8.03,41.86-7.67
						c38.72,0.61,60.63-6.93,71.59,5.24C452.42,271.79,452.5,271.9,452.58,272.01z"/>
				</defs>
				<use xlink:href="#XMLID_183_"  style="overflow:visible;fill:#92E3A9;"/>
				<clipPath id="XMLID_00000150068316913337420770000002993132176352096703_">
					<use xlink:href="#XMLID_183_"  style="overflow:visible;"/>
				</clipPath>
				<path style="opacity:0.3;clip-path:url(#XMLID_00000150068316913337420770000002993132176352096703_);fill-opacity:0.7;" d="
					M452.02,275.87c-5.94,39.14-21.71,77.53-42.46,105.08c-1.78,2.37-3.64,4.67-5.57,6.91c-20.28,23.59-48.23,40.06-78.99,49.59
					c7.83-33.56,28.37-121.93,30.92-137.34c1.67-10.04,4.64-14.97,9.16-17.39c4.08-2.18,9.41-2.31,16.16-2.28
					C391.63,280.48,427.86,274.82,452.02,275.87z"/>
				
					<use xlink:href="#XMLID_183_"  style="overflow:visible;fill:none;stroke:#263238;stroke-linecap:round;stroke-linejoin:round;stroke-miterlimit:10;"/>
			</g>
			<path style="fill:none;stroke:#263238;stroke-linecap:round;stroke-linejoin:round;stroke-miterlimit:10;" d="M434.877,275.925
				c3.655-0.156,7.313-0.233,10.972-0.206"/>
			<path style="fill:none;stroke:#263238;stroke-linecap:round;stroke-linejoin:round;stroke-miterlimit:10;" d="M428.028,276.303
				c1.141-0.076,2.282-0.146,3.423-0.209"/>
			<path style="fill:none;stroke:#263238;stroke-linecap:round;stroke-linejoin:round;stroke-miterlimit:10;" d="M338.125,381
				c5.358-22.489,10.828-44.967,15.009-67.713c1.522-8.28,1.916-18.093,6.713-25.324c5.717-8.617,16.007-7.301,25.05-7.704
				c13.04-0.581,26.014-2.635,39.025-3.658"/>
			<path style="fill:none;stroke:#263238;stroke-linecap:round;stroke-linejoin:round;stroke-miterlimit:10;" d="M336.09,389.666
				c0.36-1.556,0.723-3.111,1.088-4.665"/>
			<path style="fill:none;stroke:#263238;stroke-linecap:round;stroke-linejoin:round;stroke-miterlimit:10;" d="M325,437.45
				c2.946-12.628,5.882-25.259,8.804-37.892"/>
		</g>
	</g>
</g>
</svg>
