<svg xmlns="http://www.w3.org/2000/svg" height="1200" width="1600" version="1.1" xmlns:xlink="http://www.w3.org/1999/xlink" xmlns:svgjs="http://svgjs.com/svgjs"><rect fill="#f3ebe9" width="1600" height="1200"></rect><g><path d="M435.97 374.48L501.14 318.33C504.23 315.66 504.91 311.03 502.57 307.59L501.37 305.82 497.78 300.42C474.64 267.29 555.26 213.61 577.12 246.46L581.21 252.63 582.42 254.41C584.68 257.83 589.2 258.99 592.86 257.2L670.31 218.4C674.36 216.36 675.94 211.43 673.9 207.38 673.71 207.08 673.6 206.81 673.41 206.52L673.35 206.42 667.17 197.19 662.02 189.36 656.87 181.53C635.94 150.14 563.82 161.62 494.87 208.65 426.2 254.4 386.63 316.42 407.5 347.71L423.67 372.87 423.79 372.73C426.22 376.53 431.35 377.57 435.07 375.12 435.46 374.87 435.76 374.69 435.97 374.48Z" fill="#000000" opacity="0.2" stroke-width="4" stroke="none"></path><path d="M436.51 354.96L501.67 298.81C504.77 296.14 505.45 291.52 503.11 288.07L501.91 286.3 498.31 280.9C475.18 247.77 555.8 194.09 577.66 226.94L581.75 233.12 582.95 234.89C585.22 238.32 589.74 239.47 593.4 237.68L670.84 198.88C674.89 196.84 676.48 191.91 674.43 187.86 674.25 187.57 674.14 187.29 673.95 187L673.89 186.9 667.71 177.67 662.55 169.84 657.4 162.01C636.48 130.62 564.36 142.11 495.41 189.13 426.74 234.88 387.17 296.9 408.03 328.2L424.21 353.35 424.33 353.21C426.76 357.01 431.89 358.05 435.61 355.6 436 355.35 436.29 355.17 436.51 354.96Z" fill="#ffc930" opacity="1" stroke-width="4" stroke="none"></path></g><g><path d="M1154 397.83L621.2 268.79 492.16 801.58 1024.96 930.62 1154 397.83Z" fill="#3c2c5b" opacity="1" stroke-width="4" stroke="none"></path></g><g><path d="M570.51 380.76L907.74 282.21C962.51 266.21 1019.82 297.59 1035.82 352.37L1134.37 689.6C1150.38 744.37 1118.99 801.67 1064.22 817.68L726.99 916.22C672.21 932.23 614.91 900.84 598.9 846.07L500.36 508.84C484.35 454.07 515.85 396.73 570.51 380.76Z" fill="#ffa0dc" opacity="1" stroke-width="4" stroke="none"></path></g><g><path d="M1259.82 368.01L1261.58 416.23 1291.96 372.66 1346.74 400.89 1315.85 350.24 1364.21 331.3 1310.69 315.3 1338.55 289.79" stroke="#ffc930" stroke-width="4" stroke-linecap="round" stroke-linejoin="round" opacity="1" fill="none"></path></g><g><path d="M529.85 977.11L489.35 988.96 526.96 1006.96 519.13 1046.05 554.27 1021.21 587.65 1051.27 580.59 1006.46 621.38 982.33 578.97 977.18 579.74 931.66 553.42 964.76 517.64 937.73 529.85 977.11Z" fill="#000000" opacity="0.2" stroke-width="4" stroke="none"></path><path d="M540.44 962.64L499.93 974.5 537.54 992.49 529.71 1031.58 564.85 1006.75 598.23 1036.81 591.17 992 631.96 967.86 589.55 962.71 590.33 917.2 564.01 950.29 528.23 923.27 540.44 962.64Z" fill="#3c2c5b" opacity="1" stroke-width="4" stroke="none"></path></g><g><path d="M263.89 580.91L265.81 563.91 274.98 579.17 289.12 570.73 285.06 587.75 301.42 599.09 282.12 598.69 283.64 618.4 270.96 603.3 252.63 612.85 259.8 593.68 241 581.38 263.89 580.91Z" fill="#61ccff" opacity="1" stroke-width="4" stroke="none"></path></g><g><path d="M726.58 413.18L644.07 546.11C632.25 565.13 628.89 588.18 634.66 609.79L673.65 755.7C685.28 799.3 730.13 825.33 773.83 813.61L960.75 763.76C1004.45 752.14 1030.39 707.29 1018.77 663.58L979.77 517.68C974.01 496.07 959.5 477.72 939.81 467.16L802.07 393C775.47 378.79 742.43 387.53 726.58 413.18Z" fill="#3c2c5b" opacity="1" stroke-width="4" stroke="none"></path><path d="M767.11 413.66C774.6 411.64 782.58 412.6 789.49 416.25L927.23 490.4C940.48 497.6 950.19 509.9 954.12 524.5L993.12 670.5C1001 700.08 983.42 730.34 953.93 738.31L766.92 788.06C737.34 795.94 707.08 778.36 699.11 748.88L660.21 602.97C656.36 588.37 658.67 572.91 666.55 560.04L748.96 427.1C753.09 420.48 759.52 415.67 767.11 413.66ZM760.29 388.11C746.27 391.85 734.26 400.78 726.58 413.18L644.07 546.11C632.25 565.13 628.89 588.18 634.66 609.79L673.65 755.7C685.28 799.3 730.13 825.33 773.83 813.61L960.75 763.76C1004.45 752.14 1030.39 707.29 1018.77 663.58L979.77 517.68C974.01 496.07 959.5 477.72 939.81 467.16L802.07 393C789.2 386.09 774.32 384.36 760.29 388.11Z" fill="#61ccff" opacity="1" stroke-width="4" stroke="none"></path><path d="M887.69 539.77L693.45 591.6 742.88 776.83 937.12 725.01 887.69 539.77Z" fill="#000000" opacity="0.2" stroke-width="4" stroke="none"></path><path d="M899.7 520.27L705.46 572.09 754.88 757.33 949.12 705.51 899.7 520.27Z" fill="#ffffff" opacity="1" stroke-width="4" stroke="none"></path><path d="M835.5 670.02L633.6 605.95 673.56 755.6C685.18 799.21 730.03 825.24 773.74 813.52L960.56 763.67C1004.26 752.05 1030.2 707.19 1018.57 663.58L978.62 513.93 835.5 670.02Z" fill="#61ccff" opacity="1" stroke-width="4" stroke="none"></path><path d="M823.49 625.07L683.35 778.08C702.47 808.43 739.06 822.84 773.74 813.62L960.56 763.67C995.23 754.45 1019.82 723.71 1021.26 687.88L823.49 625.07Z" fill="#61ccff" opacity="1" stroke-width="4" stroke="none"></path><path d="M817.25 727.36L879.87 710.65C888.71 708.25 897.74 713.53 900.14 722.37 902.54 731.2 897.26 740.23 888.42 742.63L825.8 759.35C816.96 761.75 807.93 756.46 805.53 747.63 803.13 738.69 808.41 729.67 817.25 727.36Z" fill="#3c2c5b" opacity="1" stroke-width="4" stroke="none"></path><path d="M829.16 741.19L876.42 728.61" stroke="#181818" stroke-width="4" stroke-linecap="round" stroke-linejoin="round" opacity="1" fill="none"></path><path d="M683.26 778.75L793.33 657.15" stroke="#181818" stroke-width="4" stroke-linecap="round" stroke-linejoin="round" opacity="1" fill="none"></path><path d="M865.28 638.32L1020.5 687.5" stroke="#181818" stroke-width="4" stroke-linecap="round" stroke-linejoin="round" opacity="1" fill="none"></path><path d="M662.13 612.1L635.71 604.13" stroke="#181818" stroke-width="4" stroke-linecap="round" stroke-linejoin="round" opacity="1" fill="none"></path><path d="M957.2 534.3L976.79 514.22" stroke="#181818" stroke-width="4" stroke-linecap="round" stroke-linejoin="round" opacity="1" fill="none"></path></g><g><path d="M378.23 470.7L416.18 480.72 443.94 442.85 435.07 489.59 475.56 492.13 433.84 513.57V559.07L414.86 519.89 380.78 535.09 402.3 502.23 378.23 470.7Z" stroke="#000000" stroke-width="4" stroke-linecap="round" stroke-linejoin="round" opacity="1" fill="none"></path></g></svg>