<?xml version="1.0" encoding="utf-8"?>
<!-- Generator: Adobe Illustrator 27.5.0, SVG Export Plug-In . SVG Version: 6.00 Build 0)  -->
<svg version="1.1" xmlns="http://www.w3.org/2000/svg" xmlns:xlink="http://www.w3.org/1999/xlink" x="0px" y="0px"
	 viewBox="0 0 750 500" style="enable-background:new 0 0 750 500;" xml:space="preserve">
<g id="BACKGROUND">
	<rect style="fill:#FFFFFF;" width="750" height="500"/>
</g>
<g id="OBJECTS">
	<g>
		
			<line style="fill:none;stroke:#011635;stroke-width:1.5;stroke-linecap:round;stroke-linejoin:round;stroke-miterlimit:10;" x1="330.773" y1="92.288" x2="316.651" y2="90.28"/>
		
			<line style="fill:none;stroke:#011635;stroke-width:1.5;stroke-linecap:round;stroke-linejoin:round;stroke-miterlimit:10;" x1="660.086" y1="461.137" x2="671.27" y2="469.99"/>
		
			<line style="fill:none;stroke:#011635;stroke-width:1.5;stroke-linecap:round;stroke-linejoin:round;stroke-miterlimit:10;" x1="443.086" y1="17.978" x2="449.286" y2="30.824"/>
		
			<line style="fill:none;stroke:#011635;stroke-width:1.5;stroke-linecap:round;stroke-linejoin:round;stroke-miterlimit:10;" x1="36.793" y1="259.297" x2="47.977" y2="268.151"/>
		
			<line style="fill:none;stroke:#011635;stroke-width:1.5;stroke-linecap:round;stroke-linejoin:round;stroke-miterlimit:10;" x1="679.852" y1="285.459" x2="693.289" y2="280.673"/>
		
			<line style="fill:none;stroke:#011635;stroke-width:1.5;stroke-linecap:round;stroke-linejoin:round;stroke-miterlimit:10;" x1="505.723" y1="462.399" x2="508.948" y2="476.293"/>
		
			<line style="fill:none;stroke:#011635;stroke-width:1.5;stroke-linecap:round;stroke-linejoin:round;stroke-miterlimit:10;" x1="115.651" y1="436.313" x2="109.363" y2="449.116"/>
		
			<line style="fill:none;stroke:#011635;stroke-width:1.5;stroke-linecap:round;stroke-linejoin:round;stroke-miterlimit:10;" x1="696.433" y1="97.218" x2="690.144" y2="110.021"/>
		<path style="fill:none;stroke:#011635;stroke-width:1.5;stroke-linecap:round;stroke-linejoin:round;stroke-miterlimit:10;" d="
			M97.143,196.219c0-1.748-1.417-3.165-3.165-3.165c-1.748,0-3.165,1.417-3.165,3.165c0,1.748,1.417,3.165,3.165,3.165
			C95.726,199.384,97.143,197.967,97.143,196.219z"/>
		<path style="fill:none;stroke:#011635;stroke-width:1.5;stroke-linecap:round;stroke-linejoin:round;stroke-miterlimit:10;" d="
			M733.231,168.819c0-1.748-1.417-3.165-3.165-3.165s-3.165,1.417-3.165,3.165c0,1.748,1.417,3.165,3.165,3.165
			S733.231,170.567,733.231,168.819z"/>
		<path style="fill:none;stroke:#011635;stroke-width:1.5;stroke-linecap:round;stroke-linejoin:round;stroke-miterlimit:10;" d="
			M139.626,44.275c0-1.748-1.417-3.165-3.165-3.165s-3.165,1.417-3.165,3.165c0,1.748,1.417,3.165,3.165,3.165
			S139.626,46.023,139.626,44.275z"/>
		<path style="fill:none;stroke:#011635;stroke-width:1.5;stroke-linecap:round;stroke-linejoin:round;stroke-miterlimit:10;" d="
			M45.55,395.163c0-1.748-1.417-3.165-3.165-3.165c-1.748,0-3.165,1.417-3.165,3.165c0,1.748,1.417,3.165,3.165,3.165
			C44.133,398.328,45.55,396.911,45.55,395.163z"/>
		<path style="fill:none;stroke:#011635;stroke-width:1.5;stroke-linecap:round;stroke-linejoin:round;stroke-miterlimit:10;" d="
			M638.923,37.945c0-1.748-1.417-3.165-3.165-3.165c-1.748,0-3.165,1.417-3.165,3.165c0,1.748,1.417,3.165,3.165,3.165
			C637.506,41.11,638.923,39.693,638.923,37.945z"/>
		<path style="fill:none;stroke:#011635;stroke-width:1.5;stroke-linecap:round;stroke-linejoin:round;stroke-miterlimit:10;" d="
			M372.25,47.44c0-1.748-1.417-3.165-3.165-3.165c-1.748,0-3.165,1.417-3.165,3.165c0,1.748,1.417,3.165,3.165,3.165
			C370.833,50.604,372.25,49.188,372.25,47.44z"/>
		<path style="fill:none;stroke:#011635;stroke-width:1.5;stroke-linecap:round;stroke-linejoin:round;stroke-miterlimit:10;" d="
			M173.055,472.511c0-1.748-1.417-3.165-3.165-3.165c-1.748,0-3.165,1.417-3.165,3.165c0,1.748,1.417,3.165,3.165,3.165
			C171.638,475.676,173.055,474.259,173.055,472.511z"/>
		<path style="fill:none;stroke:#011635;stroke-width:1.5;stroke-linecap:round;stroke-linejoin:round;stroke-miterlimit:10;" d="
			M699.598,371.489c0-1.748-1.417-3.165-3.165-3.165c-1.748,0-3.165,1.417-3.165,3.165c0,1.748,1.417,3.165,3.165,3.165
			C698.181,374.654,699.598,373.237,699.598,371.489z"/>
		
			<line style="fill:none;stroke:#011635;stroke-width:3;stroke-linecap:round;stroke-linejoin:round;stroke-miterlimit:10;" x1="709.481" y1="430.146" x2="709.481" y2="430.146"/>
		
			<line style="fill:none;stroke:#011635;stroke-width:3;stroke-linecap:round;stroke-linejoin:round;stroke-miterlimit:10;" x1="47.977" y1="168.819" x2="47.977" y2="168.819"/>
		
			<line style="fill:none;stroke:#011635;stroke-width:3;stroke-linecap:round;stroke-linejoin:round;stroke-miterlimit:10;" x1="554.633" y1="37.945" x2="554.633" y2="37.945"/>
		
			<line style="fill:none;stroke:#011635;stroke-width:3;stroke-linecap:round;stroke-linejoin:round;stroke-miterlimit:10;" x1="28.241" y1="465.564" x2="28.241" y2="465.564"/>
		
			<line style="fill:none;stroke:#011635;stroke-width:3;stroke-linecap:round;stroke-linejoin:round;stroke-miterlimit:10;" x1="255.65" y1="34.78" x2="255.65" y2="34.78"/>
		
			<line style="fill:none;stroke:#011635;stroke-width:3;stroke-linecap:round;stroke-linejoin:round;stroke-miterlimit:10;" x1="718.198" y1="37.945" x2="718.198" y2="37.945"/>
		
			<line style="fill:none;stroke:#011635;stroke-width:3;stroke-linecap:round;stroke-linejoin:round;stroke-miterlimit:10;" x1="384.264" y1="480.626" x2="384.264" y2="480.626"/>
		
			<line style="fill:none;stroke:#011635;stroke-width:1.5;stroke-linecap:round;stroke-linejoin:round;stroke-miterlimit:10;" x1="60.931" y1="35.176" x2="53.019" y2="47.044"/>
	</g>
	<g>
		<path style="fill:#8791FF;" d="M165.138,441.65c123.102,59.617,328.592,15.761,405.026-44.798
			c99.332-78.701,123.291-263.394,20.309-325.765c-58.638-35.514-153.429-27.23-229.536,75.972
			c-70.659,95.814-122.015,49.392-201.725,77.475C58.337,260.074,59.935,390.701,165.138,441.65z"/>
		<path style="fill:#FFFFFF;" d="M219.181,139.626h347.639c6.628,0,12,5.373,12,12v230.747c0,6.628-5.372,12-12,12H219.181
			c-6.627,0-12-5.372-12-12V151.626C207.181,144.999,212.553,139.626,219.181,139.626z"/>
	</g>
	<g>
		<g>
			<g>
				<path style="fill:#F9CAD2;" d="M520.535,131.992c-1.281-12.521,4.712-29.833,13.506-28.275s-2.183,15.151,5.113,29.216
					L520.535,131.992z"/>
				<g>
					<path style="fill:#00CFBE;" d="M522.962,139.626c0,0,14.214-14.055,21.599-39.11c7.385-25.055,40.088-25.846,46.154,5.802
						c6.066,31.648-22.418,76.084-22.418,76.084L522.962,139.626z"/>
					
						<path style="fill:none;stroke:#011635;stroke-width:1.5;stroke-linecap:round;stroke-linejoin:round;stroke-miterlimit:10;" d="
						M570.209,107.927c0,0,1.842,30.101-24.991,52.7"/>
				</g>
				<path style="fill:none;stroke:#011635;stroke-width:1.5;stroke-linecap:round;stroke-linejoin:round;stroke-miterlimit:10;" d="
					M611.154,115.493c0,0,4.747,16.449-7.516,28.824"/>
			</g>
			<g>
				<path style="fill:none;stroke:#011635;stroke-width:1.5;stroke-linecap:round;stroke-linejoin:round;stroke-miterlimit:10;" d="
					M220.363,379.217c0,0,3.099,14.838-4.813,27.893"/>
				<path style="fill:none;stroke:#011635;stroke-width:1.5;stroke-linecap:round;stroke-linejoin:round;stroke-miterlimit:10;" d="
					M205.196,379.217c0,0-0.441,11.85-6.516,22.047"/>
			</g>
			<g>
				<g>
					<path style="fill:#00CFBE;" d="M352.994,389.04c19.215,24.557,38.731,23.785,62.204,23.697
						c23.473-0.089,50.118,6.472,61.916,21.587c11.798,15.116,47.458,19.288,45.848-17.018
						c-1.61-36.306-54.164-68.826-96.525-67.401c-42.36,1.424-70.844-4.986-70.844-4.986L352.994,389.04z"/>
					
						<path style="fill:none;stroke:#011635;stroke-width:1.5;stroke-linecap:round;stroke-linejoin:round;stroke-miterlimit:10;" d="
						M354.341,365.343c65.857,33.986,111.92,11.746,140.125,47.393"/>
				</g>
				<path style="fill:none;stroke:#011635;stroke-width:1.5;stroke-linecap:round;stroke-linejoin:round;stroke-miterlimit:10;" d="
					M539.154,416.862c0,0,10.578,7.259,10.234,25.852"/>
			</g>
			<g>
				<path style="fill:#F9CAD2;" d="M223.445,135.018c-8.291-17.095-6.247-43.996,5.522-43.732
					c11.769,0.264,0.165,28.914,15.725,41.226L223.445,135.018z"/>
				<g>
					<path style="fill:#00CFBE;" d="M181.923,168.819c0,0-46.286-84.127-1.978-97.182c37.25-10.975,29.408,62.177,69.693,78.363
						L181.923,168.819z"/>
					
						<path style="fill:none;stroke:#011635;stroke-width:1.5;stroke-linecap:round;stroke-linejoin:round;stroke-miterlimit:10;" d="
						M183.901,93.791c0,0,5.312,37.452,29.557,66.264"/>
				</g>
				<path style="fill:none;stroke:#011635;stroke-width:1.5;stroke-linecap:round;stroke-linejoin:round;stroke-miterlimit:10;" d="
					M157,263.84c0,0,22.436,6.314,41.68,2.594"/>
				<path style="fill:none;stroke:#011635;stroke-width:1.5;stroke-linecap:round;stroke-linejoin:round;stroke-miterlimit:10;" d="
					M147.506,144.945c0,0,13.055,5.367,19.385,18.843"/>
				<path style="fill:none;stroke:#011635;stroke-width:1.5;stroke-linecap:round;stroke-linejoin:round;stroke-miterlimit:10;" d="
					M267.31,106.055c0,0-5.998,10.462,0,28.571"/>
			</g>
		</g>
		<g>
			<g>
				<g>
					
						<path style="fill:#011635;stroke:#011635;stroke-width:1.5;stroke-linecap:round;stroke-linejoin:round;stroke-miterlimit:10;" d="
						M205.983,128.626h347.639c6.628,0,12,5.373,12,12v230.747c0,6.627-5.372,12-12,12H205.983c-6.627,0-12-5.373-12-12V140.626
						C193.983,133.999,199.355,128.626,205.983,128.626z"/>
					
						<path style="fill:#FFFFFF;stroke:#011635;stroke-width:1.5;stroke-linecap:round;stroke-linejoin:round;stroke-miterlimit:10;" d="
						M198.181,128.626h347.639c6.627,0,12,5.373,12,12v230.747c0,6.627-5.373,12-12,12H198.181c-6.627,0-12-5.373-12-12V140.626
						C186.181,133.999,191.553,128.626,198.181,128.626z"/>
					
						<path style="fill:#F4DC90;stroke:#011635;stroke-width:1.5;stroke-linecap:round;stroke-linejoin:round;stroke-miterlimit:10;" d="
						M198.181,383.374h347.639c6.628,0,12-5.372,12-12v-12.231H186.181v12.231C186.181,378.001,191.553,383.374,198.181,383.374z"/>
					
						<path style="fill:#D0D0D6;stroke:#011635;stroke-width:1.5;stroke-linecap:round;stroke-linejoin:round;stroke-miterlimit:10;" d="
						M377.915,371.258c0-3.267-2.648-5.915-5.915-5.915c-3.267,0-5.915,2.648-5.915,5.915c0,3.267,2.648,5.915,5.915,5.915
						C375.267,377.173,377.915,374.525,377.915,371.258z"/>
					
						<path style="fill:#F4DC90;stroke:#011635;stroke-width:1.5;stroke-linecap:round;stroke-linejoin:round;stroke-miterlimit:10;" d="
						M545.819,128.626H198.181c-6.627,0-12,5.373-12,12h371.639C557.819,133.999,552.447,128.626,545.819,128.626z"/>
				</g>
				<g>
					<g>
						<rect x="210.945" y="160.626" style="fill:#F9CAD2;" width="134.374" height="91.275"/>
						<rect x="210.945" y="248.632" style="fill:#F99AAA;" width="134.374" height="3.269"/>
					</g>
					<g>
						
							<rect x="217.28" y="166.962" style="fill:none;stroke:#011635;stroke-width:1.5;stroke-linecap:round;stroke-linejoin:round;stroke-miterlimit:10;" width="6.165" height="6.165"/>
						
							<line style="fill:none;stroke:#011635;stroke-width:1.5;stroke-linecap:round;stroke-linejoin:round;stroke-miterlimit:10;" x1="235.775" y1="173.126" x2="229.61" y2="173.126"/>
					</g>
					<g>
						<g>
							
								<polyline style="fill:none;stroke:#011635;stroke-width:1.5;stroke-linecap:round;stroke-linejoin:round;stroke-miterlimit:10;" points="
								233.763,226.037 251.849,191.009 269.52,217.64 290.376,196.624 303.769,212.312 325,222.476 							"/>
							
								<path style="fill:#FFFFFF;stroke:#011635;stroke-width:1.5;stroke-linecap:round;stroke-linejoin:round;stroke-miterlimit:10;" d="
								M235.973,226.037c0-1.221-0.99-2.21-2.21-2.21c-1.221,0-2.21,0.99-2.21,2.21c0,1.221,0.99,2.21,2.21,2.21
								C234.984,228.247,235.973,227.258,235.973,226.037z"/>
							
								<path style="fill:#FFFFFF;stroke:#011635;stroke-width:1.5;stroke-linecap:round;stroke-linejoin:round;stroke-miterlimit:10;" d="
								M292.586,196.624c0-1.221-0.99-2.21-2.21-2.21c-1.221,0-2.21,0.99-2.21,2.21c0,1.221,0.99,2.21,2.21,2.21
								C291.596,198.835,292.586,197.845,292.586,196.624z"/>
							
								<circle style="fill:#FFFFFF;stroke:#011635;stroke-width:1.5;stroke-linecap:round;stroke-linejoin:round;stroke-miterlimit:10;" cx="269.52" cy="217.64" r="2.21"/>
							
								<path style="fill:#FFFFFF;stroke:#011635;stroke-width:1.5;stroke-linecap:round;stroke-linejoin:round;stroke-miterlimit:10;" d="
								M305.98,212.312c0-1.221-0.99-2.21-2.21-2.21c-1.221,0-2.21,0.99-2.21,2.21c0,1.221,0.99,2.21,2.21,2.21
								C304.99,214.523,305.98,213.533,305.98,212.312z"/>
							
								<path style="fill:#FFFFFF;stroke:#011635;stroke-width:1.5;stroke-linecap:round;stroke-linejoin:round;stroke-miterlimit:10;" d="
								M254.059,191.009c0-1.221-0.99-2.21-2.21-2.21c-1.221,0-2.21,0.99-2.21,2.21s0.99,2.21,2.21,2.21
								C253.069,193.219,254.059,192.229,254.059,191.009z"/>
							
								<path style="fill:#FFFFFF;stroke:#011635;stroke-width:1.5;stroke-linecap:round;stroke-linejoin:round;stroke-miterlimit:10;" d="
								M327.211,222.476c0-1.221-0.99-2.21-2.21-2.21c-1.221,0-2.21,0.99-2.21,2.21c0,1.221,0.99,2.21,2.21,2.21
								C326.221,224.687,327.211,223.697,327.211,222.476z"/>
						</g>
						
							<line style="fill:none;stroke:#011635;stroke-width:1.5;stroke-linecap:round;stroke-linejoin:round;stroke-miterlimit:10;" x1="233.763" y1="237.165" x2="325" y2="237.165"/>
					</g>
					<g>
						<rect x="303.552" y="166.962" style="fill:#FFFFFF;" width="35.028" height="6.165"/>
						<rect x="320.712" y="176.061" style="fill:#8791FF;" width="17.868" height="6.165"/>
					</g>
				</g>
				<g>
					<g>
						<rect x="210.945" y="260.099" style="fill:#F9CAD2;" width="134.374" height="79.044"/>
						<rect x="210.945" y="335.873" style="fill:#F99AAA;" width="134.374" height="3.269"/>
					</g>
					<g>
						
							<rect x="217.28" y="266.434" style="fill:none;stroke:#011635;stroke-width:1.5;stroke-linecap:round;stroke-linejoin:round;stroke-miterlimit:10;" width="6.165" height="6.165"/>
						
							<line style="fill:none;stroke:#011635;stroke-width:1.5;stroke-linecap:round;stroke-linejoin:round;stroke-miterlimit:10;" x1="235.775" y1="272.599" x2="229.61" y2="272.599"/>
					</g>
					<g>
						<rect x="223.445" y="280.855" style="fill:#8791FF;" width="115.135" height="4.421"/>
						<rect x="223.445" y="291.322" style="fill:#FFFFFF;" width="115.135" height="4.421"/>
						<rect x="223.445" y="301.789" style="fill:#FFFFFF;" width="71.348" height="4.421"/>
						<rect x="223.445" y="312.256" style="fill:#8791FF;" width="51.618" height="4.421"/>
						<rect x="280.585" y="312.256" style="fill:#8791FF;" width="28.998" height="4.421"/>
						<rect x="223.445" y="322.723" style="fill:#FFFFFF;" width="31.401" height="4.421"/>
					</g>
				</g>
				<g>
					<g>
						<rect x="359.517" y="160.626" style="fill:#F9CAD2;" width="173.538" height="22.599"/>
						<rect x="359.517" y="183.225" style="fill:#F99AAA;" width="173.538" height="3.269"/>
					</g>
					<g>
						
							<line style="fill:none;stroke:#011635;stroke-width:1.5;stroke-linecap:round;stroke-linejoin:round;stroke-miterlimit:10;" x1="365.852" y1="166.962" x2="372.017" y2="166.962"/>
						
							<line style="fill:none;stroke:#011635;stroke-width:1.5;stroke-linecap:round;stroke-linejoin:round;stroke-miterlimit:10;" x1="378.181" y1="166.962" x2="384.346" y2="166.962"/>
						
							<rect x="365.852" y="164.572" style="fill:none;stroke:#011635;stroke-width:1.5;stroke-linecap:round;stroke-linejoin:round;stroke-miterlimit:10;" width="6.165" height="2.39"/>
					</g>
					<g>
						<rect x="372.017" y="172.367" style="fill:#8791FF;" width="61.643" height="4.421"/>
						<rect x="437.423" y="172.367" style="fill:#FFFFFF;" width="25.874" height="4.421"/>
					</g>
				</g>
				<g>
					<g>
						<rect x="359.517" y="191.079" style="fill:#F9CAD2;" width="173.538" height="22.599"/>
						<rect x="359.517" y="213.678" style="fill:#F99AAA;" width="173.538" height="3.269"/>
					</g>
					<g>
						
							<line style="fill:none;stroke:#011635;stroke-width:1.5;stroke-linecap:round;stroke-linejoin:round;stroke-miterlimit:10;" x1="365.852" y1="197.414" x2="372.017" y2="197.414"/>
						
							<line style="fill:none;stroke:#011635;stroke-width:1.5;stroke-linecap:round;stroke-linejoin:round;stroke-miterlimit:10;" x1="378.181" y1="197.414" x2="384.346" y2="197.414"/>
						
							<rect x="365.852" y="195.024" style="fill:none;stroke:#011635;stroke-width:1.5;stroke-linecap:round;stroke-linejoin:round;stroke-miterlimit:10;" width="6.165" height="2.39"/>
					</g>
					<g>
						<rect x="372.017" y="202.819" style="fill:#8791FF;" width="28.181" height="4.421"/>
						<rect x="434.659" y="202.819" style="fill:#8791FF;" width="82.286" height="4.421"/>
						<rect x="404.885" y="202.819" style="fill:#FFFFFF;" width="25.874" height="4.421"/>
					</g>
				</g>
				<g>
					<g>
						<rect x="359.517" y="221.531" style="fill:#F9CAD2;" width="173.538" height="22.599"/>
						<rect x="359.517" y="244.13" style="fill:#F99AAA;" width="173.538" height="3.269"/>
					</g>
					<g>
						
							<line style="fill:none;stroke:#011635;stroke-width:1.5;stroke-linecap:round;stroke-linejoin:round;stroke-miterlimit:10;" x1="365.852" y1="227.867" x2="372.017" y2="227.867"/>
						
							<line style="fill:none;stroke:#011635;stroke-width:1.5;stroke-linecap:round;stroke-linejoin:round;stroke-miterlimit:10;" x1="378.181" y1="227.867" x2="384.346" y2="227.867"/>
						
							<rect x="365.852" y="225.476" style="fill:none;stroke:#011635;stroke-width:1.5;stroke-linecap:round;stroke-linejoin:round;stroke-miterlimit:10;" width="6.165" height="2.39"/>
					</g>
					<rect x="372.017" y="233.272" style="fill:#8791FF;" width="61.643" height="4.421"/>
				</g>
				<g>
					<g>
						<rect x="359.517" y="251.984" style="fill:#F9CAD2;" width="173.538" height="22.599"/>
						<rect x="359.517" y="274.582" style="fill:#F99AAA;" width="173.538" height="3.269"/>
					</g>
					<g>
						
							<line style="fill:none;stroke:#011635;stroke-width:1.5;stroke-linecap:round;stroke-linejoin:round;stroke-miterlimit:10;" x1="365.852" y1="258.319" x2="372.017" y2="258.319"/>
						
							<line style="fill:none;stroke:#011635;stroke-width:1.5;stroke-linecap:round;stroke-linejoin:round;stroke-miterlimit:10;" x1="378.181" y1="258.319" x2="384.346" y2="258.319"/>
						
							<rect x="365.852" y="255.929" style="fill:none;stroke:#011635;stroke-width:1.5;stroke-linecap:round;stroke-linejoin:round;stroke-miterlimit:10;" width="6.165" height="2.39"/>
					</g>
					<g>
						<rect x="372.017" y="263.724" style="fill:#8791FF;" width="43.181" height="4.421"/>
						<rect x="420.198" y="263.724" style="fill:#FFFFFF;" width="72.692" height="4.421"/>
						<rect x="498.352" y="263.724" style="fill:#FFFFFF;" width="11.967" height="4.421"/>
					</g>
				</g>
				<g>
					<g>
						<rect x="359.517" y="287.511" style="fill:#F9CAD2;" width="173.538" height="51.632"/>
						<rect x="359.517" y="335.873" style="fill:#F99AAA;" width="173.538" height="3.269"/>
					</g>
					<g>
						
							<rect x="365.852" y="293.846" style="fill:none;stroke:#011635;stroke-width:1.5;stroke-linecap:round;stroke-linejoin:round;stroke-miterlimit:10;" width="6.165" height="6.165"/>
						
							<line style="fill:none;stroke:#011635;stroke-width:1.5;stroke-linecap:round;stroke-linejoin:round;stroke-miterlimit:10;" x1="384.346" y1="300.011" x2="378.181" y2="300.011"/>
					</g>
					<g>
						<rect x="392.423" y="300.865" style="fill:#8791FF;" width="24.923" height="24.923"/>
						<g>
							
								<line style="fill:none;stroke:#011635;stroke-width:1.5;stroke-linecap:round;stroke-linejoin:round;stroke-miterlimit:10;" x1="398.712" y1="319.5" x2="411.058" y2="307.154"/>
							
								<line style="fill:none;stroke:#011635;stroke-width:1.5;stroke-linecap:round;stroke-linejoin:round;stroke-miterlimit:10;" x1="411.058" y1="319.5" x2="398.712" y2="307.154"/>
						</g>
					</g>
					<g>
						<rect x="426.437" y="300.865" style="fill:#8791FF;" width="24.923" height="24.923"/>
						<g>
							
								<line style="fill:none;stroke:#011635;stroke-width:1.5;stroke-linecap:round;stroke-linejoin:round;stroke-miterlimit:10;" x1="432.726" y1="319.5" x2="445.072" y2="307.154"/>
						</g>
					</g>
					<g>
						<rect x="460.451" y="300.865" style="fill:#8791FF;" width="24.923" height="24.923"/>
						
							<rect x="467.892" y="307.735" style="fill:none;stroke:#011635;stroke-width:1.5;stroke-linecap:round;stroke-linejoin:round;stroke-miterlimit:10;" width="11.184" height="11.184"/>
					</g>
					<g>
						<rect x="494.465" y="300.865" style="fill:#8791FF;" width="24.923" height="24.923"/>
						
							<line style="fill:none;stroke:#011635;stroke-width:1.5;stroke-linecap:round;stroke-linejoin:round;stroke-miterlimit:10;" x1="501.335" y1="307.735" x2="501.335" y2="307.735"/>
						
							<line style="fill:none;stroke:#011635;stroke-width:1.5;stroke-linecap:round;stroke-linejoin:round;stroke-miterlimit:10;" x1="512.519" y1="307.735" x2="512.519" y2="307.735"/>
						
							<line style="fill:none;stroke:#011635;stroke-width:1.5;stroke-linecap:round;stroke-linejoin:round;stroke-miterlimit:10;" x1="501.335" y1="318.919" x2="501.335" y2="318.919"/>
						
							<line style="fill:none;stroke:#011635;stroke-width:1.5;stroke-linecap:round;stroke-linejoin:round;stroke-miterlimit:10;" x1="512.519" y1="318.919" x2="512.519" y2="318.919"/>
					</g>
				</g>
			</g>
			<g>
				<g>
					<g>
						<g style="opacity:0.45;">
							<path style="fill:#8791FF;" d="M635.723,429.649H491.314c-3.976,0-7.2-3.224-7.2-7.2V278.04c0-3.976,3.224-7.2,7.2-7.2
								h144.409c3.976,0,7.2,3.224,7.2,7.2v144.409C642.923,426.425,639.7,429.649,635.723,429.649z"/>
							
								<path style="fill:none;stroke:#8791FF;stroke-width:1.5;stroke-linecap:round;stroke-linejoin:round;stroke-miterlimit:10;" d="
								M635.723,429.649H491.314c-3.976,0-7.2-3.224-7.2-7.2V278.04c0-3.976,3.224-7.2,7.2-7.2h144.409c3.976,0,7.2,3.224,7.2,7.2
								v144.409C642.923,426.425,639.7,429.649,635.723,429.649z"/>
						</g>
						<g>
							<path style="fill:#FFFFFF;" d="M628.723,422.649H484.314c-3.976,0-7.2-3.224-7.2-7.2V271.04c0-3.976,3.224-7.2,7.2-7.2
								h144.409c3.976,0,7.2,3.224,7.2,7.2v144.409C635.923,419.425,632.7,422.649,628.723,422.649z"/>
							
								<path style="fill:none;stroke:#011635;stroke-width:1.5;stroke-linecap:round;stroke-linejoin:round;stroke-miterlimit:10;" d="
								M628.723,422.649H484.314c-3.976,0-7.2-3.224-7.2-7.2V271.04c0-3.976,3.224-7.2,7.2-7.2h144.409c3.976,0,7.2,3.224,7.2,7.2
								v144.409C635.923,419.425,632.7,422.649,628.723,422.649z"/>
						</g>
					</g>
					<g>
						
							<line style="fill:none;stroke:#011635;stroke-width:1.5;stroke-linecap:round;stroke-linejoin:round;stroke-miterlimit:10;" x1="486.447" y1="278.154" x2="492.131" y2="272.471"/>
						
							<line style="fill:none;stroke:#011635;stroke-width:1.5;stroke-linecap:round;stroke-linejoin:round;stroke-miterlimit:10;" x1="486.447" y1="272.471" x2="492.131" y2="278.154"/>
					</g>
					<g>
						<g>
							<g>
								<path style="fill:#8791FF;" d="M508.055,317.098c-6.667,0-12.072,5.405-12.072,12.072v2.922h24.145v-2.922
									C520.127,322.503,514.722,317.098,508.055,317.098z"/>
								<path style="fill:#8791FF;" d="M514.906,307.84c0-3.784-3.067-6.852-6.852-6.852c-3.784,0-6.852,3.068-6.852,6.852
									s3.068,6.852,6.852,6.852C511.839,314.692,514.906,311.624,514.906,307.84z"/>
							</g>
							
								<rect x="492.131" y="289.727" style="fill:none;stroke:#011635;stroke-width:1.5;stroke-linecap:round;stroke-linejoin:round;stroke-miterlimit:10;" width="31.848" height="42.366"/>
						</g>
						<g>
							
								<rect x="531.874" y="316.829" transform="matrix(-1 -1.224647e-16 1.224647e-16 -1 1098.7762 639.8226)" style="fill:#8791FF;" width="35.028" height="6.165"/>
							
								<rect x="531.874" y="325.928" transform="matrix(-1 -1.224647e-16 1.224647e-16 -1 1081.6167 658.0204)" style="fill:#8791FF;" width="17.868" height="6.165"/>
						</g>
						
							<path style="fill:none;stroke:#011635;stroke-width:1.5;stroke-linecap:round;stroke-linejoin:round;stroke-miterlimit:10;" d="
							M620.907,328.332c0-2.077-1.684-3.761-3.761-3.761c-2.077,0-3.761,1.684-3.761,3.761c0,2.077,1.684,3.761,3.761,3.761
							C619.223,332.093,620.907,330.409,620.907,328.332z"/>
					</g>
					<g>
						<rect x="492.131" y="341.958" style="fill:#F9CAD2;" width="128.776" height="25.319"/>
						<g>
							<rect x="498.951" y="347.695" style="fill:#8791FF;" width="115.135" height="4.421"/>
							<rect x="498.951" y="358.162" style="fill:#FFFFFF;" width="43.522" height="4.421"/>
						</g>
					</g>
					<g>
						<rect x="492.131" y="377.143" style="fill:#F9CAD2;" width="128.776" height="25.319"/>
						<g>
							<rect x="498.951" y="382.879" style="fill:#8791FF;" width="52.682" height="4.421"/>
							<rect x="555.528" y="382.879" style="fill:#FFFFFF;" width="58.558" height="4.421"/>
							<rect x="522.962" y="393.346" style="fill:#FFFFFF;" width="42.061" height="4.421"/>
							<rect x="498.951" y="393.346" style="fill:#FFFFFF;" width="20.115" height="4.421"/>
						</g>
					</g>
				</g>
				<g>
					
						<path style="fill:none;stroke:#011635;stroke-width:1.5;stroke-linecap:round;stroke-linejoin:round;stroke-miterlimit:10;" d="
						M482.859,347.761c-15.3,0-14.48-12.841-31.419-12.841l0,0c-4.558,0-8.253-3.695-8.253-8.254v-3.289"/>
					
						<path style="fill:#011635;stroke:#011635;stroke-width:1.5;stroke-linecap:round;stroke-linejoin:round;stroke-miterlimit:10;" d="
						M488.543,347.761L488.543,347.761c0-1.569-1.272-2.842-2.842-2.842l0,0c-1.57,0-2.842,1.272-2.842,2.842l0,0
						c0,1.57,1.272,2.842,2.842,2.842l0,0C487.27,350.603,488.543,349.331,488.543,347.761z"/>
					
						<path style="fill:#011635;stroke:#011635;stroke-width:1.5;stroke-linecap:round;stroke-linejoin:round;stroke-miterlimit:10;" d="
						M446.028,320.535L446.028,320.535c0-1.569-1.272-2.842-2.842-2.842l0,0c-1.57,0-2.842,1.272-2.842,2.842l0,0
						c0,1.569,1.272,2.842,2.842,2.842l0,0C444.756,323.377,446.028,322.105,446.028,320.535z"/>
				</g>
			</g>
			<g>
				<g>
					<g>
						<g style="opacity:0.45;">
							<path style="fill:#8791FF;" d="M656.886,253.53h-96.503c-3.976,0-7.2-3.224-7.2-7.2v-96.503c0-3.976,3.224-7.2,7.2-7.2
								h96.503c3.976,0,7.2,3.224,7.2,7.2v96.503C664.086,250.307,660.863,253.53,656.886,253.53z"/>
							
								<path style="fill:none;stroke:#8791FF;stroke-width:1.5;stroke-linecap:round;stroke-linejoin:round;stroke-miterlimit:10;" d="
								M656.886,253.53h-96.503c-3.976,0-7.2-3.224-7.2-7.2v-96.503c0-3.976,3.224-7.2,7.2-7.2h96.503c3.976,0,7.2,3.224,7.2,7.2
								v96.503C664.086,250.307,660.863,253.53,656.886,253.53z"/>
						</g>
						<g>
							<path style="fill:#FFFFFF;" d="M649.886,246.53h-96.503c-3.976,0-7.2-3.224-7.2-7.2v-96.503c0-3.976,3.224-7.2,7.2-7.2
								h96.503c3.976,0,7.2,3.224,7.2,7.2v96.503C657.086,243.307,653.863,246.53,649.886,246.53z"/>
							
								<path style="fill:none;stroke:#011635;stroke-width:1.5;stroke-linecap:round;stroke-linejoin:round;stroke-miterlimit:10;" d="
								M649.886,246.53h-96.503c-3.976,0-7.2-3.224-7.2-7.2v-96.503c0-3.976,3.224-7.2,7.2-7.2h96.503c3.976,0,7.2,3.224,7.2,7.2
								v96.503C657.086,243.307,653.863,246.53,649.886,246.53z"/>
						</g>
					</g>
					<g>
						
							<line style="fill:none;stroke:#011635;stroke-width:1.5;stroke-linecap:round;stroke-linejoin:round;stroke-miterlimit:10;" x1="555.517" y1="149.942" x2="561.2" y2="144.258"/>
						
							<line style="fill:none;stroke:#011635;stroke-width:1.5;stroke-linecap:round;stroke-linejoin:round;stroke-miterlimit:10;" x1="555.517" y1="144.258" x2="561.2" y2="149.942"/>
					</g>
					<rect x="557.247" y="176.232" style="fill:none;" width="88.776" height="33.975"/>
				</g>
				<g>
					
						<path style="fill:none;stroke:#011635;stroke-width:1.5;stroke-linecap:round;stroke-linejoin:round;stroke-miterlimit:10;" d="
						M522.258,166.72c16.939,0,16.12,12.841,31.419,12.841"/>
					
						<path style="fill:#011635;stroke:#011635;stroke-width:1.5;stroke-linecap:round;stroke-linejoin:round;stroke-miterlimit:10;" d="
						M559.36,179.561L559.36,179.561c0-1.569-1.272-2.842-2.842-2.842l0,0c-1.569,0-2.842,1.272-2.842,2.842l0,0
						c0,1.57,1.272,2.842,2.842,2.842l0,0C558.088,182.403,559.36,181.131,559.36,179.561z"/>
					
						<path style="fill:#011635;stroke:#011635;stroke-width:1.5;stroke-linecap:round;stroke-linejoin:round;stroke-miterlimit:10;" d="
						M522.258,166.72L522.258,166.72c0-1.57-1.272-2.842-2.842-2.842l0,0c-1.57,0-2.842,1.272-2.842,2.842l0,0
						c0,1.57,1.272,2.842,2.842,2.842l0,0C520.985,169.562,522.258,168.29,522.258,166.72z"/>
				</g>
				<g>
					
						<path style="fill:#011635;stroke:#011635;stroke-width:1.5;stroke-linecap:round;stroke-linejoin:round;stroke-miterlimit:10;" d="
						M559.36,197.173L559.36,197.173c0-1.57-1.272-2.842-2.842-2.842l0,0c-1.569,0-2.842,1.272-2.842,2.842l0,0
						c0,1.569,1.272,2.842,2.842,2.842l0,0C558.088,200.015,559.36,198.742,559.36,197.173z"/>
					
						<path style="fill:#011635;stroke:#011635;stroke-width:1.5;stroke-linecap:round;stroke-linejoin:round;stroke-miterlimit:10;" d="
						M522.258,197.173L522.258,197.173c0-1.57-1.272-2.842-2.842-2.842l0,0c-1.57,0-2.842,1.272-2.842,2.842l0,0
						c0,1.569,1.272,2.842,2.842,2.842l0,0C520.985,200.015,522.258,198.742,522.258,197.173z"/>
					
						<line style="fill:none;stroke:#011635;stroke-width:1.5;stroke-linecap:round;stroke-linejoin:round;stroke-miterlimit:10;" x1="522.258" y1="197.173" x2="553.677" y2="197.173"/>
				</g>
				<g>
					
						<path style="fill:none;stroke:#011635;stroke-width:1.5;stroke-linecap:round;stroke-linejoin:round;stroke-miterlimit:10;" d="
						M522.258,227.625c16.939,0,16.12-12.841,31.419-12.841"/>
					
						<path style="fill:#011635;stroke:#011635;stroke-width:1.5;stroke-linecap:round;stroke-linejoin:round;stroke-miterlimit:10;" d="
						M559.36,214.784L559.36,214.784c0,1.57-1.272,2.842-2.842,2.842l0,0c-1.569,0-2.842-1.272-2.842-2.842l0,0
						c0-1.57,1.272-2.842,2.842-2.842l0,0C558.088,211.943,559.36,213.215,559.36,214.784z"/>
					
						<path style="fill:#011635;stroke:#011635;stroke-width:1.5;stroke-linecap:round;stroke-linejoin:round;stroke-miterlimit:10;" d="
						M522.258,227.625L522.258,227.625c0,1.569-1.272,2.842-2.842,2.842l0,0c-1.57,0-2.842-1.272-2.842-2.842l0,0
						c0-1.57,1.272-2.842,2.842-2.842l0,0C520.985,224.783,522.258,226.056,522.258,227.625z"/>
				</g>
			</g>
			<g>
				<g>
					<g>
						<g>
							<g style="opacity:0.45;">
								<path style="fill:#8791FF;" d="M359.832,443.031H248.243c-3.977,0-7.2-3.224-7.2-7.2v-53.887c0-3.977,3.223-7.2,7.2-7.2
									h111.589c3.976,0,7.2,3.224,7.2,7.2v53.887C367.032,439.807,363.809,443.031,359.832,443.031z"/>
								
									<path style="fill:none;stroke:#8791FF;stroke-width:1.5;stroke-linecap:round;stroke-linejoin:round;stroke-miterlimit:10;" d="
									M359.832,443.031H248.243c-3.977,0-7.2-3.224-7.2-7.2v-53.887c0-3.977,3.223-7.2,7.2-7.2h111.589c3.976,0,7.2,3.224,7.2,7.2
									v53.887C367.032,439.807,363.809,443.031,359.832,443.031z"/>
							</g>
							<g>
								<path style="fill:#FFFFFF;" d="M352.832,436.031H241.243c-3.977,0-7.2-3.224-7.2-7.2v-53.887c0-3.977,3.223-7.2,7.2-7.2
									h111.589c3.976,0,7.2,3.224,7.2,7.2v53.887C360.032,432.807,356.809,436.031,352.832,436.031z"/>
								
									<path style="fill:none;stroke:#011635;stroke-width:1.5;stroke-linecap:round;stroke-linejoin:round;stroke-miterlimit:10;" d="
									M352.832,436.031H241.243c-3.977,0-7.2-3.224-7.2-7.2v-53.887c0-3.977,3.223-7.2,7.2-7.2h111.589c3.976,0,7.2,3.224,7.2,7.2
									v53.887C360.032,432.807,356.809,436.031,352.832,436.031z"/>
							</g>
						</g>
						<g>
							
								<line style="fill:none;stroke:#011635;stroke-width:1.5;stroke-linecap:round;stroke-linejoin:round;stroke-miterlimit:10;" x1="243.376" y1="382.059" x2="249.06" y2="376.375"/>
							
								<line style="fill:none;stroke:#011635;stroke-width:1.5;stroke-linecap:round;stroke-linejoin:round;stroke-miterlimit:10;" x1="243.376" y1="376.375" x2="249.06" y2="382.059"/>
						</g>
						<rect x="252.65" y="385.934" style="fill:none;" width="88.776" height="33.975"/>
					</g>
					<g>
						
							<path style="fill:none;stroke:#011635;stroke-width:1.5;stroke-linecap:round;stroke-linejoin:round;stroke-miterlimit:10;" d="
							M297.377,371.489c0-15.3-12.841-14.48-12.841-31.419l0,0c0-4.558-3.695-8.253-8.253-8.253h-3.289"/>
						
							<path style="fill:#011635;stroke:#011635;stroke-width:1.5;stroke-linecap:round;stroke-linejoin:round;stroke-miterlimit:10;" d="
							M297.377,377.173L297.377,377.173c-1.57,0-2.842-1.272-2.842-2.842v0c0-1.57,1.272-2.842,2.842-2.842h0
							c1.569,0,2.842,1.272,2.842,2.842v0C300.219,375.901,298.947,377.173,297.377,377.173z"/>
						
							<path style="fill:#011635;stroke:#011635;stroke-width:1.5;stroke-linecap:round;stroke-linejoin:round;stroke-miterlimit:10;" d="
							M270.152,334.659L270.152,334.659c-1.569,0-2.842-1.272-2.842-2.842l0,0c0-1.57,1.272-2.842,2.842-2.842l0,0
							c1.57,0,2.842,1.272,2.842,2.842l0,0C272.994,333.386,271.721,334.659,270.152,334.659z"/>
					</g>
				</g>
				<g>
					<g>
						<g>
							<g style="opacity:0.45;">
								<path style="fill:#8791FF;" d="M453.869,454.703h-59.045c-3.976,0-7.2-3.224-7.2-7.2v-32.038c0-3.976,3.224-7.2,7.2-7.2
									h59.045c3.976,0,7.2,3.224,7.2,7.2v32.038C461.069,451.479,457.845,454.703,453.869,454.703z"/>
								
									<path style="fill:none;stroke:#8791FF;stroke-width:1.5;stroke-linecap:round;stroke-linejoin:round;stroke-miterlimit:10;" d="
									M453.869,454.703h-59.045c-3.976,0-7.2-3.224-7.2-7.2v-32.038c0-3.976,3.224-7.2,7.2-7.2h59.045c3.976,0,7.2,3.224,7.2,7.2
									v32.038C461.069,451.479,457.845,454.703,453.869,454.703z"/>
							</g>
							<g>
								<path style="fill:#FFFFFF;" d="M446.869,447.703h-59.045c-3.976,0-7.2-3.224-7.2-7.2v-32.038c0-3.976,3.224-7.2,7.2-7.2
									h59.045c3.976,0,7.2,3.224,7.2,7.2v32.038C454.069,444.479,450.845,447.703,446.869,447.703z"/>
								
									<path style="fill:none;stroke:#011635;stroke-width:1.5;stroke-linecap:round;stroke-linejoin:round;stroke-miterlimit:10;" d="
									M446.869,447.703h-59.045c-3.976,0-7.2-3.224-7.2-7.2v-32.038c0-3.976,3.224-7.2,7.2-7.2h59.045c3.976,0,7.2,3.224,7.2,7.2
									v32.038C454.069,444.479,450.845,447.703,446.869,447.703z"/>
							</g>
						</g>
						<g>
							
								<line style="fill:none;stroke:#011635;stroke-width:1.5;stroke-linecap:round;stroke-linejoin:round;stroke-miterlimit:10;" x1="389.956" y1="415.579" x2="395.64" y2="409.895"/>
							
								<line style="fill:none;stroke:#011635;stroke-width:1.5;stroke-linecap:round;stroke-linejoin:round;stroke-miterlimit:10;" x1="389.956" y1="409.895" x2="395.64" y2="415.579"/>
						</g>
						<g>
							
								<path style="fill:#011635;stroke:#011635;stroke-width:1.5;stroke-linecap:round;stroke-linejoin:round;stroke-miterlimit:10;" d="
								M407.498,434.324c0-1.471-1.192-2.663-2.664-2.663s-2.664,1.192-2.664,2.663c0,1.471,1.193,2.664,2.664,2.664
								S407.498,435.795,407.498,434.324z"/>
							
								<path style="fill:#011635;stroke:#011635;stroke-width:1.5;stroke-linecap:round;stroke-linejoin:round;stroke-miterlimit:10;" d="
								M435.339,414.643c0-1.471-1.193-2.664-2.664-2.664c-1.471,0-2.664,1.193-2.664,2.664s1.193,2.664,2.664,2.664
								C434.146,417.306,435.339,416.114,435.339,414.643z"/>
							
								<path style="fill:none;stroke:#011635;stroke-width:1.5;stroke-linecap:round;stroke-linejoin:round;stroke-miterlimit:10;" d="
								M404.834,434.324c0,0,23.19,6.132,27.841-19.681"/>
						</g>
					</g>
					<g>
						
							<path style="fill:none;stroke:#011635;stroke-width:1.5;stroke-linecap:round;stroke-linejoin:round;stroke-miterlimit:10;" d="
							M352.994,414.463c16.939,0,16.119,12.841,31.419,12.841"/>
						
							<path style="fill:#011635;stroke:#011635;stroke-width:1.5;stroke-linecap:round;stroke-linejoin:round;stroke-miterlimit:10;" d="
							M390.097,427.304L390.097,427.304c0-1.569-1.272-2.842-2.842-2.842l0,0c-1.569,0-2.842,1.272-2.842,2.842l0,0
							c0,1.569,1.272,2.842,2.842,2.842l0,0C388.825,430.146,390.097,428.874,390.097,427.304z"/>
						
							<path style="fill:#011635;stroke:#011635;stroke-width:1.5;stroke-linecap:round;stroke-linejoin:round;stroke-miterlimit:10;" d="
							M352.994,414.463L352.994,414.463c0-1.569-1.272-2.842-2.842-2.842l0,0c-1.569,0-2.842,1.272-2.842,2.842l0,0
							c0,1.57,1.272,2.842,2.842,2.842l0,0C351.722,417.305,352.994,416.033,352.994,414.463z"/>
					</g>
				</g>
			</g>
			<g>
				<g>
					<g>
						<g style="opacity:0.45;">
							<path style="fill:#8791FF;" d="M198.818,395.599h-54.283c-4.232,0-7.662-3.431-7.662-7.663v-96.419
								c0-4.232,3.431-7.663,7.662-7.663h54.283c4.232,0,7.662,3.431,7.662,7.663v96.419
								C206.48,392.169,203.05,395.599,198.818,395.599z"/>
							
								<path style="fill:none;stroke:#8791FF;stroke-width:1.5;stroke-linecap:round;stroke-linejoin:round;stroke-miterlimit:10;" d="
								M198.818,395.599h-54.283c-4.232,0-7.662-3.431-7.662-7.663v-96.419c0-4.232,3.431-7.663,7.662-7.663h54.283
								c4.232,0,7.662,3.431,7.662,7.663v96.419C206.48,392.169,203.05,395.599,198.818,395.599z"/>
						</g>
						<g>
							<path style="fill:#FFFFFF;" d="M191.818,388.599h-54.283c-4.232,0-7.662-3.431-7.662-7.663v-96.419
								c0-4.232,3.431-7.663,7.662-7.663h54.283c4.232,0,7.662,3.431,7.662,7.663v96.419
								C199.48,385.169,196.05,388.599,191.818,388.599z"/>
							
								<path style="fill:none;stroke:#011635;stroke-width:1.5;stroke-linecap:round;stroke-linejoin:round;stroke-miterlimit:10;" d="
								M191.818,388.599h-54.283c-4.232,0-7.662-3.431-7.662-7.663v-96.419c0-4.232,3.431-7.663,7.662-7.663h54.283
								c4.232,0,7.662,3.431,7.662,7.663v96.419C199.48,385.169,196.05,388.599,191.818,388.599z"/>
						</g>
					</g>
					<g>
						
							<line style="fill:none;stroke:#011635;stroke-width:1.5;stroke-linecap:round;stroke-linejoin:round;stroke-miterlimit:10;" x1="139.206" y1="291.17" x2="144.889" y2="285.486"/>
						
							<line style="fill:none;stroke:#011635;stroke-width:1.5;stroke-linecap:round;stroke-linejoin:round;stroke-miterlimit:10;" x1="139.206" y1="285.486" x2="144.889" y2="291.17"/>
					</g>
					<g>
						<path style="fill:#8791FF;" d="M187.993,318.711c-0.009-0.2-0.098-0.388-0.247-0.522c-0.149-0.134-0.343-0.208-0.545-0.191
							c-14.407,0.852-21.796-12.024-21.87-12.154c-0.266-0.473-1.043-0.473-1.309,0c-0.073,0.13-7.475,12.999-21.87,12.154
							c-0.199-0.015-0.396,0.058-0.545,0.191c-0.149,0.135-0.238,0.322-0.247,0.522c-0.016,0.344-1.327,34.425,23.201,38.242
							c0.038,0.006,0.077,0.009,0.115,0.009c0.039,0,0.077-0.003,0.115-0.009C189.319,353.136,188.009,319.055,187.993,318.711z"/>
					</g>
				</g>
				<g>
					
						<path style="fill:none;stroke:#011635;stroke-width:1.5;stroke-linecap:round;stroke-linejoin:round;stroke-miterlimit:10;" d="
						M223.284,292.569c-16.939,0-16.119,12.841-31.419,12.841"/>
					
						<path style="fill:#011635;stroke:#011635;stroke-width:1.5;stroke-linecap:round;stroke-linejoin:round;stroke-miterlimit:10;" d="
						M186.181,305.409L186.181,305.409c0-1.569,1.272-2.842,2.842-2.842l0,0c1.569,0,2.842,1.272,2.842,2.842l0,0
						c0,1.57-1.272,2.842-2.842,2.842l0,0C187.453,308.251,186.181,306.979,186.181,305.409z"/>
					
						<path style="fill:#011635;stroke:#011635;stroke-width:1.5;stroke-linecap:round;stroke-linejoin:round;stroke-miterlimit:10;" d="
						M223.284,292.569L223.284,292.569c0-1.57,1.272-2.842,2.842-2.842l0,0c1.57,0,2.842,1.272,2.842,2.842l0,0
						c0,1.569-1.272,2.842-2.842,2.842l0,0C224.556,295.41,223.284,294.138,223.284,292.569z"/>
				</g>
			</g>
			<g>
				<g>
					<g>
						<g style="opacity:0.45;">
							<path style="fill:#8791FF;" d="M199.281,257.13h-55.208c-3.977,0-7.2-3.224-7.2-7.2v-80.572c0-3.977,3.224-7.2,7.2-7.2
								h55.208c3.977,0,7.2,3.223,7.2,7.2v80.572C206.48,253.906,203.257,257.13,199.281,257.13z"/>
							
								<path style="fill:none;stroke:#8791FF;stroke-width:1.5;stroke-linecap:round;stroke-linejoin:round;stroke-miterlimit:10;" d="
								M199.281,257.13h-55.208c-3.977,0-7.2-3.224-7.2-7.2v-80.572c0-3.977,3.224-7.2,7.2-7.2h55.208c3.977,0,7.2,3.223,7.2,7.2
								v80.572C206.48,253.906,203.257,257.13,199.281,257.13z"/>
						</g>
						<g>
							<path style="fill:#FFFFFF;" d="M192.281,250.13h-55.208c-3.977,0-7.2-3.224-7.2-7.2v-80.572c0-3.977,3.224-7.2,7.2-7.2
								h55.208c3.977,0,7.2,3.223,7.2,7.2v80.572C199.48,246.906,196.257,250.13,192.281,250.13z"/>
							
								<path style="fill:none;stroke:#011635;stroke-width:1.5;stroke-linecap:round;stroke-linejoin:round;stroke-miterlimit:10;" d="
								M192.281,250.13h-55.208c-3.977,0-7.2-3.224-7.2-7.2v-80.572c0-3.977,3.224-7.2,7.2-7.2h55.208c3.977,0,7.2,3.223,7.2,7.2
								v80.572C199.48,246.906,196.257,250.13,192.281,250.13z"/>
						</g>
					</g>
					<g>
						
							<line style="fill:none;stroke:#011635;stroke-width:1.5;stroke-linecap:round;stroke-linejoin:round;stroke-miterlimit:10;" x1="139.206" y1="169.472" x2="144.889" y2="163.788"/>
						
							<line style="fill:none;stroke:#011635;stroke-width:1.5;stroke-linecap:round;stroke-linejoin:round;stroke-miterlimit:10;" x1="139.206" y1="163.788" x2="144.889" y2="169.472"/>
					</g>
					<g>
						<rect x="133.462" y="188.798" style="fill:none;" width="62.43" height="31.468"/>
						<text transform="matrix(1 0 0 1 137.0475 214.358)" style="fill:#011635; font-family:'D-DIN-Bold'; font-size:36px;">&lt;/&gt;</text>
					</g>
				</g>
				<g>
					
						<path style="fill:none;stroke:#011635;stroke-width:1.5;stroke-linecap:round;stroke-linejoin:round;stroke-miterlimit:10;" d="
						M223.284,191.28c-16.939,0-16.119-12.841-31.419-12.841"/>
					
						<path style="fill:#011635;stroke:#011635;stroke-width:1.5;stroke-linecap:round;stroke-linejoin:round;stroke-miterlimit:10;" d="
						M186.181,178.439L186.181,178.439c0,1.569,1.272,2.842,2.842,2.842l0,0c1.569,0,2.842-1.272,2.842-2.842l0,0
						c0-1.57-1.272-2.842-2.842-2.842l0,0C187.453,175.598,186.181,176.87,186.181,178.439z"/>
					
						<path style="fill:#011635;stroke:#011635;stroke-width:1.5;stroke-linecap:round;stroke-linejoin:round;stroke-miterlimit:10;" d="
						M223.284,191.28L223.284,191.28c0,1.569,1.272,2.842,2.842,2.842l0,0c1.57,0,2.842-1.272,2.842-2.842l0,0
						c0-1.57-1.272-2.842-2.842-2.842l0,0C224.556,188.438,223.284,189.711,223.284,191.28z"/>
				</g>
			</g>
			<g>
				<g>
					<g>
						<g style="opacity:0.45;">
							<path style="fill:#8791FF;" d="M312.442,177.32h-59.045c-3.977,0-7.2-3.224-7.2-7.2v-32.038c0-3.977,3.223-7.2,7.2-7.2
								h59.045c3.976,0,7.2,3.223,7.2,7.2v32.038C319.642,174.096,316.419,177.32,312.442,177.32z"/>
							
								<path style="fill:none;stroke:#8791FF;stroke-width:1.5;stroke-linecap:round;stroke-linejoin:round;stroke-miterlimit:10;" d="
								M312.442,177.32h-59.045c-3.977,0-7.2-3.224-7.2-7.2v-32.038c0-3.977,3.223-7.2,7.2-7.2h59.045c3.976,0,7.2,3.223,7.2,7.2
								v32.038C319.642,174.096,316.419,177.32,312.442,177.32z"/>
						</g>
						<g>
							<path style="fill:#FFFFFF;" d="M305.442,170.32h-59.045c-3.977,0-7.2-3.224-7.2-7.2v-32.038c0-3.977,3.223-7.2,7.2-7.2
								h59.045c3.976,0,7.2,3.223,7.2,7.2v32.038C312.642,167.096,309.419,170.32,305.442,170.32z"/>
							
								<path style="fill:none;stroke:#011635;stroke-width:1.5;stroke-linecap:round;stroke-linejoin:round;stroke-miterlimit:10;" d="
								M305.442,170.32h-59.045c-3.977,0-7.2-3.224-7.2-7.2v-32.038c0-3.977,3.223-7.2,7.2-7.2h59.045c3.976,0,7.2,3.223,7.2,7.2
								v32.038C312.642,167.096,309.419,170.32,305.442,170.32z"/>
						</g>
					</g>
					<g>
						
							<line style="fill:none;stroke:#011635;stroke-width:1.5;stroke-linecap:round;stroke-linejoin:round;stroke-miterlimit:10;" x1="248.53" y1="138.196" x2="254.214" y2="132.512"/>
						
							<line style="fill:none;stroke:#011635;stroke-width:1.5;stroke-linecap:round;stroke-linejoin:round;stroke-miterlimit:10;" x1="248.53" y1="132.512" x2="254.214" y2="138.196"/>
					</g>
					<g>
						<rect x="250.28" y="140.626" style="fill:none;" width="51.279" height="23.353"/>
						<text transform="matrix(1 0 0 1 253.3239 155.536)" style="fill:#011635; font-family:'D-DIN-Bold'; font-size:21px;">JAVA</text>
					</g>
				</g>
				<g>
					<g>
						<g style="opacity:0.45;">
							<path style="fill:#8791FF;" d="M492.199,142.335H343.983c-3.976,0-7.2,3.224-7.2,7.2v6.3c0,3.976,3.224,7.2,7.2,7.2h148.216
								c3.977,0,7.2-3.224,7.2-7.2v-6.3C499.399,145.559,496.176,142.335,492.199,142.335z"/>
							
								<path style="fill:none;stroke:#8791FF;stroke-width:1.5;stroke-linecap:round;stroke-linejoin:round;stroke-miterlimit:10;" d="
								M492.199,142.335H343.983c-3.976,0-7.2,3.224-7.2,7.2v6.3c0,3.976,3.224,7.2,7.2,7.2h148.216c3.977,0,7.2-3.224,7.2-7.2v-6.3
								C499.399,145.559,496.176,142.335,492.199,142.335z"/>
						</g>
						<g>
							<path style="fill:#FFFFFF;" d="M486.614,136.75H338.398c-3.976,0-7.2,3.224-7.2,7.2v6.3c0,3.976,3.224,7.2,7.2,7.2h148.217
								c3.977,0,7.2-3.224,7.2-7.2v-6.3C493.814,139.974,490.591,136.75,486.614,136.75z"/>
							
								<path style="fill:none;stroke:#011635;stroke-width:1.5;stroke-linecap:round;stroke-linejoin:round;stroke-miterlimit:10;" d="
								M486.614,136.75H338.398c-3.976,0-7.2,3.224-7.2,7.2v6.3c0,3.976,3.224,7.2,7.2,7.2h148.217c3.977,0,7.2-3.224,7.2-7.2v-6.3
								C493.814,139.974,490.591,136.75,486.614,136.75z"/>
						</g>
					</g>
					<g>
						<path style="fill:#F9CAD2;" d="M481.804,143.721H373.978c-1.867,0-3.38,1.513-3.38,3.38l0,0c0,1.867,1.513,3.38,3.38,3.38
							h107.826c1.867,0,3.38-1.513,3.38-3.38l0,0C485.184,145.234,483.67,143.721,481.804,143.721z"/>
						<path style="fill:#8791FF;" d="M460.765,143.721h-86.787c-1.867,0-3.38,1.513-3.38,3.38c0,1.867,1.513,3.38,3.38,3.38h86.787
							V143.721z"/>
					</g>
					
						<rect x="355.512" y="144.317" style="fill:none;stroke:#011635;stroke-width:1.5;stroke-linecap:round;stroke-linejoin:round;stroke-miterlimit:10;" width="5.684" height="5.684"/>
				</g>
				<g>
					<g>
						<g style="opacity:0.45;">
							<path style="fill:#8791FF;" d="M492.199,113.511H343.983c-3.976,0-7.2,3.224-7.2,7.2v6.3c0,3.977,3.224,7.2,7.2,7.2h148.216
								c3.977,0,7.2-3.223,7.2-7.2v-6.3C499.399,116.735,496.176,113.511,492.199,113.511z"/>
							
								<path style="fill:none;stroke:#8791FF;stroke-width:1.5;stroke-linecap:round;stroke-linejoin:round;stroke-miterlimit:10;" d="
								M492.199,113.511H343.983c-3.976,0-7.2,3.224-7.2,7.2v6.3c0,3.977,3.224,7.2,7.2,7.2h148.216c3.977,0,7.2-3.223,7.2-7.2v-6.3
								C499.399,116.735,496.176,113.511,492.199,113.511z"/>
						</g>
						<g>
							<path style="fill:#FFFFFF;" d="M486.614,107.927H338.398c-3.976,0-7.2,3.224-7.2,7.2v6.3c0,3.977,3.224,7.2,7.2,7.2h148.217
								c3.977,0,7.2-3.224,7.2-7.2v-6.3C493.814,111.15,490.591,107.927,486.614,107.927z"/>
							
								<path style="fill:none;stroke:#011635;stroke-width:1.5;stroke-linecap:round;stroke-linejoin:round;stroke-miterlimit:10;" d="
								M486.614,107.927H338.398c-3.976,0-7.2,3.224-7.2,7.2v6.3c0,3.977,3.224,7.2,7.2,7.2h148.217c3.977,0,7.2-3.224,7.2-7.2v-6.3
								C493.814,111.15,490.591,107.927,486.614,107.927z"/>
						</g>
					</g>
					<g>
						<path style="fill:#F9CAD2;" d="M481.804,114.897H373.978c-1.867,0-3.38,1.513-3.38,3.38l0,0c0,1.867,1.513,3.38,3.38,3.38
							h107.826c1.867,0,3.38-1.513,3.38-3.38l0,0C485.184,116.41,483.67,114.897,481.804,114.897z"/>
						<path style="fill:#8791FF;" d="M398.235,114.897h-24.257c-1.867,0-3.38,1.513-3.38,3.38c0,1.867,1.513,3.38,3.38,3.38h24.257
							V114.897z"/>
					</g>
					
						<rect x="355.512" y="115.493" style="fill:none;stroke:#011635;stroke-width:1.5;stroke-linecap:round;stroke-linejoin:round;stroke-miterlimit:10;" width="5.684" height="5.684"/>
				</g>
				<g>
					<g>
						<g style="opacity:0.45;">
							<path style="fill:#8791FF;" d="M492.199,171.159H343.983c-3.976,0-7.2,3.224-7.2,7.2v6.3c0,3.976,3.224,7.2,7.2,7.2h148.216
								c3.977,0,7.2-3.224,7.2-7.2v-6.3C499.399,174.383,496.176,171.159,492.199,171.159z"/>
							
								<path style="fill:none;stroke:#8791FF;stroke-width:1.5;stroke-linecap:round;stroke-linejoin:round;stroke-miterlimit:10;" d="
								M492.199,171.159H343.983c-3.976,0-7.2,3.224-7.2,7.2v6.3c0,3.976,3.224,7.2,7.2,7.2h148.216c3.977,0,7.2-3.224,7.2-7.2v-6.3
								C499.399,174.383,496.176,171.159,492.199,171.159z"/>
						</g>
						<g>
							<path style="fill:#FFFFFF;" d="M486.614,165.574H338.398c-3.976,0-7.2,3.224-7.2,7.2v6.3c0,3.976,3.224,7.2,7.2,7.2h148.217
								c3.977,0,7.2-3.224,7.2-7.2v-6.3C493.814,168.798,490.591,165.574,486.614,165.574z"/>
							
								<path style="fill:none;stroke:#011635;stroke-width:1.5;stroke-linecap:round;stroke-linejoin:round;stroke-miterlimit:10;" d="
								M486.614,165.574H338.398c-3.976,0-7.2,3.224-7.2,7.2v6.3c0,3.976,3.224,7.2,7.2,7.2h148.217c3.977,0,7.2-3.224,7.2-7.2v-6.3
								C493.814,168.798,490.591,165.574,486.614,165.574z"/>
						</g>
					</g>
					<g>
						<path style="fill:#F9CAD2;" d="M481.804,172.544H373.978c-1.867,0-3.38,1.513-3.38,3.38l0,0c0,1.867,1.513,3.38,3.38,3.38
							h107.826c1.867,0,3.38-1.513,3.38-3.38l0,0C485.184,174.058,483.67,172.544,481.804,172.544z"/>
						<path style="fill:#8791FF;" d="M477.696,172.544H373.978c-1.867,0-3.38,1.513-3.38,3.38c0,1.867,1.513,3.38,3.38,3.38h103.719
							V172.544z"/>
					</g>
					
						<rect x="355.512" y="173.141" style="fill:none;stroke:#011635;stroke-width:1.5;stroke-linecap:round;stroke-linejoin:round;stroke-miterlimit:10;" width="5.684" height="5.684"/>
				</g>
				<g>
					
						<path style="fill:none;stroke:#011635;stroke-width:1.5;stroke-linecap:round;stroke-linejoin:round;stroke-miterlimit:10;" d="
						M338.006,119.335c-16.939,0-16.119,12.841-31.419,12.841"/>
					
						<path style="fill:#011635;stroke:#011635;stroke-width:1.5;stroke-linecap:round;stroke-linejoin:round;stroke-miterlimit:10;" d="
						M300.904,132.176L300.904,132.176c0-1.57,1.272-2.842,2.842-2.842l0,0c1.569,0,2.842,1.272,2.842,2.842l0,0
						c0,1.57-1.272,2.842-2.842,2.842l0,0C302.176,135.018,300.904,133.745,300.904,132.176z"/>
					
						<path style="fill:#011635;stroke:#011635;stroke-width:1.5;stroke-linecap:round;stroke-linejoin:round;stroke-miterlimit:10;" d="
						M338.006,119.335L338.006,119.335c0-1.569,1.272-2.842,2.842-2.842l0,0c1.569,0,2.842,1.272,2.842,2.842l0,0
						c0,1.57-1.272,2.842-2.842,2.842l0,0C339.279,122.177,338.006,120.905,338.006,119.335z"/>
				</g>
				<g>
					
						<path style="fill:#011635;stroke:#011635;stroke-width:1.5;stroke-linecap:round;stroke-linejoin:round;stroke-miterlimit:10;" d="
						M300.904,147.787L300.904,147.787c0-1.57,1.272-2.842,2.842-2.842l0,0c1.569,0,2.842,1.272,2.842,2.842l0,0
						c0,1.57-1.272,2.842-2.842,2.842l0,0C302.176,150.629,300.904,149.357,300.904,147.787z"/>
					
						<path style="fill:#011635;stroke:#011635;stroke-width:1.5;stroke-linecap:round;stroke-linejoin:round;stroke-miterlimit:10;" d="
						M338.006,147.787L338.006,147.787c0-1.57,1.272-2.842,2.842-2.842l0,0c1.569,0,2.842,1.272,2.842,2.842l0,0
						c0,1.57-1.272,2.842-2.842,2.842l0,0C339.279,150.629,338.006,149.357,338.006,147.787z"/>
					
						<line style="fill:none;stroke:#011635;stroke-width:1.5;stroke-linecap:round;stroke-linejoin:round;stroke-miterlimit:10;" x1="338.006" y1="147.787" x2="306.587" y2="147.787"/>
				</g>
				<g>
					
						<path style="fill:none;stroke:#011635;stroke-width:1.5;stroke-linecap:round;stroke-linejoin:round;stroke-miterlimit:10;" d="
						M338.006,175.24c-16.939,0-16.119-12.841-31.419-12.841"/>
					
						<path style="fill:#011635;stroke:#011635;stroke-width:1.5;stroke-linecap:round;stroke-linejoin:round;stroke-miterlimit:10;" d="
						M300.904,162.399L300.904,162.399c0,1.57,1.272,2.842,2.842,2.842l0,0c1.569,0,2.842-1.272,2.842-2.842l0,0
						c0-1.569-1.272-2.842-2.842-2.842l0,0C302.176,159.557,300.904,160.829,300.904,162.399z"/>
					
						<path style="fill:#011635;stroke:#011635;stroke-width:1.5;stroke-linecap:round;stroke-linejoin:round;stroke-miterlimit:10;" d="
						M338.006,175.24L338.006,175.24c0,1.569,1.272,2.842,2.842,2.842l0,0c1.569,0,2.842-1.272,2.842-2.842l0,0
						c0-1.57-1.272-2.842-2.842-2.842l0,0C339.279,172.398,338.006,173.67,338.006,175.24z"/>
				</g>
			</g>
		</g>
	</g>
</g>
</svg>
